<?xml version="1.0" encoding="utf-8"?>
<!-- Generator: Adobe Illustrator 25.0.0, SVG Export Plug-In . SVG Version: 6.00 Build 0)  -->
<svg version="1.1" id="Layer_1" xmlns="http://www.w3.org/2000/svg" xmlns:xlink="http://www.w3.org/1999/xlink" x="0px" y="0px"
	 viewBox="0 0 380.39 512" style="enable-background:new 0 0 380.39 512;" xml:space="preserve">
<style type="text/css">
	.st0{fill:#FFFFFF;}
	.st1{fill:#231F20;}
	.st2{fill:#E73353;}
	.st3{fill:#FCDD0B;}
</style>
<rect class="st0" width="380.39" height="512"/>
<g id="layer1" transform="translate(-149.54736,-264.91991)">
	<g id="g4552">
		<path id="path4850" class="st1" d="M300.68,437.23h81.81l3.75-0.05h8.31c3.98,0,10.53-0.19,19.78-0.58l3.46-0.14
			c-0.5,7.17-0.61,9.99-0.63,13.8l-0.05,11l-0.05,10.42v2.93v55.26c0,36.65-8.29,49.09-47.82,68.61
			c-1.75,0.87-21.9,10.92-24.01,12.05l-1.97,1.06l-2.02,1.06l-2.01-1.06l-2.02-1.06c-8.31-4.35-16.74-8.18-23.29-11.39
			c-36.22-17.76-47.82-30.38-47.82-69.27V474.6v-2.93l-0.1-10.42l-0.05-11c-0.03-6.64-0.1-8.79-0.63-13.8l3.46,0.14
			c9.1,0.38,15.88,0.58,19.83,0.58h8.26L300.68,437.23"/>
		<path id="path4854" class="st0" d="M341.25,609.08l15.57-7.64l0.39-0.15l-0.1-0.34v-71.63l-0.14-0.44l0.49,0.1h56.35l0.49,0.14
			l-0.15-0.63v-30.37l0.15-0.49l-0.49,0.14h-56.35l-0.49,0.1l0.14-0.49v-56.99l0.1-0.49l-0.44,0.14h-30.85l-0.49-0.14l0.15,0.49
			v56.99l0.1,0.49l-0.44-0.1h-55.92l-0.49-0.14l0.15,0.49v30.66l-0.15,0.34l0.49-0.14h55.92l0.44-0.1l-0.1,0.58v71.34l-0.15,0.58
			l0.39,0.1L341.25,609.08"/>
		<path id="path4858" class="st2" d="M269.57,440.08l-0.73-0.14l0.15,0.53v57.04l-0.15,0.44l0.69-0.15h55.67l0.49,0.15l-0.1-0.49
			v-57.13l0.1-0.38l-0.49,0.14H269.57"/>
		<path id="path4862" class="st2" d="M357.7,440.08l-0.68-0.14l0.1,0.53v57.04l-0.1,0.44l0.63-0.15h56.11l0.54,0.15l-0.15-0.49
			v-57.13l0.15-0.38l-0.54,0.14L357.7,440.08"/>
		<path id="path4866" class="st2" d="M325.44,528.99h-56.25l-0.34-0.14l0.15,0.39v3.4c0,31.32,10.45,46.54,42.63,62.09l10.17,4.92
			l3.54,1.66l0.29,0.34l-0.05-0.49l0.01-71.87l0.1-0.44L325.44,528.99"/>
		<path id="path4870" class="st2" d="M357.41,528.99l-0.39-0.14l0.1,0.34v71.77l-0.1,0.54l0.39-0.44l3.21-1.46
			c43.69-20.56,53.53-32.81,53.53-66.67v-3.6l0.15-0.49l-0.49,0.15L357.41,528.99"/>
		<path id="path4874" class="st1" d="M278.13,500.61c0.15,0.17,0.26,0.3,0.34,0.39c0.19,0.21,0.31,0.36,0.39,0.44
			c0.06,0.07,0.2,0.21,0.44,0.44c0.09,0.09,0.22,0.22,0.39,0.39c-0.13,0.11-0.22,0.17-0.24,0.19l-0.49,0.44l-0.38,0.44l-0.15,0.15
			v0.45c0,3.94,1.02,6.63,3.21,8.4l0.39,0.32l-0.39,0.26l-0.44-0.05l-0.93-0.1l-0.82-0.15l-0.49-0.1l-0.49,3.51h-0.68l-0.49-3.51
			l-0.49,0.1c-0.42,0.09-0.68,0.13-0.78,0.15l-0.97,0.1l-0.44,0.05c-0.2,0-0.37-0.07-0.37-0.15c0-0.09,0.08-0.2,0.23-0.31l0.73-0.56
			c0.6-0.46,1-1.04,1.7-2.48c0.32-0.65,0.49-1.2,0.49-1.61c0-1.02,0.16-1.85,0.34-1.85l0.1-1.8l0.05-0.68l-0.19-0.15l-0.39-0.44
			l-0.49-0.44l-0.19-0.19c0.18-0.17,0.31-0.3,0.39-0.39C277.69,501.21,277.76,501.13,278.13,500.61"/>
		<path id="path4878" class="st1" d="M296.58,500.61c0.38,0.52,0.45,0.6,1.12,1.26c0.09,0.09,0.22,0.22,0.39,0.39l-0.19,0.19
			l-0.49,0.44l-0.39,0.44l-0.24,0.15l0.1,0.68l0.09,1.8c0.14,2.58,1.57,5.56,3.07,6.37c0.26,0.14,0.42,0.26,0.42,0.32
			c0,0.13-0.1,0.24-0.22,0.24l-0.63-0.02l-0.93-0.1l-0.83-0.15l-0.48-0.1l-0.49,3.51h-0.63l-0.49-3.51l-0.49,0.1l-0.83,0.15
			l-0.92,0.1l-0.44,0.05l-0.06,0c-0.2,0-0.33-0.06-0.33-0.16c0-0.09,0.07-0.2,0.2-0.3l0.73-0.56c0.63-0.49,0.81-0.74,1.7-2.48
			c0.35-0.68,0.53-1.23,0.54-1.61c0-1.02,0.13-1.85,0.29-1.85l0.1-1.8l0.05-0.68c-0.06-0.06-0.11-0.12-0.14-0.15
			c-0.25-0.25-0.4-0.4-0.44-0.44l-0.49-0.44l-0.19-0.19c0.17-0.17,0.3-0.3,0.39-0.39c0.23-0.23,0.38-0.37,0.44-0.44
			c0.07-0.08,0.2-0.22,0.39-0.44C296.31,500.91,296.42,500.78,296.58,500.61"/>
		<path id="path4882" class="st1" d="M287.38,511.41l0.34,0.39l0.34,0.44c0.08,0.11,0.23,0.25,0.44,0.44l0.44,0.39l-0.24,0.19
			l-0.44,0.44l-0.44,0.39l-0.14,0.19v0.45c0,4.05,0.96,6.58,3.21,8.4l0.39,0.32l-0.39,0.27l-0.44-0.05l-0.93-0.1l-0.82-0.15
			l-0.49-0.1l-0.49,3.51h-0.68l-0.49-3.51l-0.49,0.1l-0.82,0.15l-0.93,0.1l-0.44,0.05h-0.05c-0.19,0-0.34-0.07-0.34-0.16
			c0-0.07,0.09-0.19,0.25-0.3l0.73-0.56c1.56-1.19,2.63-4.45,2.63-7.96v-0.45l-0.14-0.19l-0.44-0.39l-0.44-0.44l-0.24-0.19
			C286.57,512.43,286.93,512.04,287.38,511.41"/>
		<path id="path4886" class="st1" d="M305.87,511.41c0.45,0.63,0.82,1.01,1.56,1.65l-0.24,0.19l-0.44,0.44l-0.44,0.39l-0.15,0.19
			l0,0.45c0,2.64,0.77,5.83,1.66,6.85l0.97,1.12c0.08,0.09,0.26,0.24,0.54,0.44l0.44,0.32l-0.38,0.27l-0.44-0.05l-0.93-0.1
			l-0.82-0.15l-0.49-0.1l-0.49,3.51h-0.68l-0.49-3.51l-0.49,0.1l-0.83,0.15l-0.92,0.1l-0.44,0.05h-0.05c-0.19,0-0.34-0.07-0.34-0.17
			c0-0.08,0.08-0.19,0.22-0.3l0.71-0.56c1.53-1.21,2.68-4.47,2.68-7.96v-0.45l-0.15-0.19L305,513.7l-0.44-0.44l-0.24-0.19
			c0.19-0.17,0.34-0.3,0.44-0.39c0.21-0.19,0.36-0.33,0.44-0.44l0.34-0.44L305.87,511.41"/>
		<path id="path4890" class="st1" d="M315.12,500.61c0.38,0.52,0.44,0.6,1.12,1.26c0.09,0.09,0.22,0.22,0.39,0.39l-0.19,0.19
			l-0.49,0.44l-0.39,0.44l-0.19,0.15l0.05,0.68l0.1,1.8c0.13,2.51,1.62,5.59,3.07,6.37c0.25,0.14,0.41,0.26,0.41,0.32
			c0,0.13-0.09,0.24-0.19,0.24l-0.61-0.02l-0.97-0.1c-0.21-0.02-0.48-0.07-0.83-0.15l-0.44-0.1l-0.49,3.51h-0.69l-0.48-3.51
			l-0.51,0.13l-0.8,0.12l-0.93,0.1l-0.44,0.05l-0.06,0c-0.19,0-0.33-0.06-0.33-0.15c0-0.09,0.08-0.2,0.22-0.31l0.71-0.56
			c0.65-0.51,0.85-0.82,1.7-2.48c0.35-0.69,0.53-1.24,0.53-1.61c0-1.02,0.13-1.85,0.29-1.85l0.1-1.8l0.05-0.68l-0.15-0.15
			l-0.44-0.44c-0.22-0.23-0.36-0.37-0.44-0.44c-0.04-0.04-0.12-0.1-0.24-0.19c0.17-0.17,0.3-0.3,0.39-0.39
			c0.23-0.23,0.38-0.37,0.44-0.44c0.08-0.08,0.21-0.22,0.39-0.44C314.86,500.91,314.97,500.78,315.12,500.61"/>
		<path id="path4894" class="st1" d="M367.63,500.51l0.34,0.44l0.34,0.39c0.23,0.26,0.38,0.42,0.44,0.49
			c0.09,0.09,0.24,0.22,0.44,0.39l-0.24,0.19l-0.44,0.44l-0.44,0.39l-0.14,0.2v0.42c0,3.92,1.31,7.34,3.21,8.38
			c0.29,0.17,0.42,0.29,0.42,0.43l-0.03,0.06l-0.39,0.1h-0.44c-0.57,0-1.58-0.18-2.24-0.39l-0.49,3.5h-0.69l-0.49-3.5
			c-0.69,0.22-1.68,0.39-2.24,0.39h-0.44c-0.28,0-0.41-0.05-0.41-0.17c0-0.14,0.13-0.27,0.41-0.42c1.87-0.97,3.21-4.47,3.21-8.38
			v-0.42l-0.15-0.2l-0.44-0.39l-0.44-0.44l-0.25-0.19c0.2-0.17,0.35-0.3,0.44-0.39c0.06-0.06,0.21-0.23,0.44-0.49l0.34-0.39
			L367.63,500.51"/>
		<path id="path4898" class="st1" d="M386.17,500.51l0.34,0.44l0.39,0.39l0.44,0.49l0.39,0.39l-0.24,0.19l-0.44,0.44l-0.44,0.39
			l-0.14,0.2l0,0.42c0,3.87,1.34,7.36,3.22,8.38c0.29,0.16,0.42,0.29,0.42,0.43l-0.03,0.06l-0.39,0.1h-0.44
			c-0.57,0-1.58-0.18-2.24-0.39l-0.49,3.5h-0.69l-0.49-3.5c-0.79,0.25-1.65,0.39-2.43,0.39c-0.53,0-0.64-0.03-0.64-0.19
			c0-0.14,0.12-0.25,0.44-0.39c0.39-0.17,1.1-0.89,1.51-1.56c0.77-1.23,1.21-2.29,1.21-2.92c0-1.05,0.16-1.9,0.34-1.9l0.1-1.8
			l0.05-0.63c-0.08-0.09-0.15-0.15-0.19-0.2c-0.62-0.62-0.66-0.66-1.12-1.02l0.44-0.39l0.44-0.49l0.39-0.39L386.17,500.51"/>
		<path id="path4902" class="st1" d="M376.92,511.32c0.15,0.17,0.26,0.3,0.34,0.39c0.18,0.21,0.31,0.36,0.39,0.44
			c0.06,0.06,0.18,0.23,0.41,0.46c0.09,0.08,0.24,0.19,0.41,0.36l-0.24,0.19l-0.44,0.49l-0.44,0.39l-0.14,0.2l0.05,0.63l0.09,1.8
			c0.15,2.66,1.53,5.53,3.07,6.37c0.29,0.16,0.42,0.29,0.42,0.43l-0.03,0.06l-0.39,0.09h-0.44c-0.57,0-1.58-0.17-2.24-0.39
			l-0.49,3.51h-0.69l-0.49-3.51c-0.65,0.24-1.62,0.4-2.44,0.4c-0.5,0-0.62-0.05-0.62-0.23c0-0.13,0.12-0.23,0.43-0.37
			c0.38-0.16,1.12-0.92,1.51-1.56c0.8-1.3,1.26-2.38,1.26-2.92c0-1.05,0.13-1.9,0.29-1.9l0.1-1.8l0.05-0.63l-0.19-0.2l-0.39-0.39
			l-0.49-0.49l-0.19-0.19c0.17-0.17,0.3-0.3,0.38-0.38C376.48,511.91,376.54,511.84,376.92,511.32"/>
		<path id="path4906" class="st1" d="M395.61,511.32c0.15,0.17,0.26,0.3,0.34,0.39c0.19,0.21,0.31,0.36,0.39,0.44
			c0.06,0.06,0.2,0.21,0.44,0.44c0.08,0.08,0.21,0.21,0.38,0.38c-0.08,0.09-0.15,0.15-0.19,0.19c-0.28,0.28-0.44,0.44-0.49,0.49
			c-0.26,0.23-0.41,0.36-0.44,0.39c-0.02,0.03-0.07,0.09-0.14,0.2l0.05,0.63l0.09,1.8c0.15,2.66,1.53,5.53,3.07,6.37
			c0.29,0.16,0.42,0.29,0.42,0.43l-0.03,0.06l-0.39,0.09h-0.44c-0.57,0-1.58-0.17-2.24-0.39l-0.49,3.51h-0.63l-0.54-3.51
			c-0.65,0.24-1.62,0.4-2.44,0.4c-0.5,0-0.62-0.05-0.62-0.23c0-0.13,0.12-0.23,0.43-0.37c0.38-0.16,1.12-0.92,1.51-1.56
			c0.79-1.3,1.26-2.38,1.26-2.92c0-1.05,0.13-1.9,0.29-1.9l0.1-1.8l0.05-0.63l-0.19-0.2l-0.39-0.39l-0.49-0.49l-0.19-0.19
			c0.17-0.17,0.3-0.3,0.38-0.38C395.16,511.91,395.23,511.84,395.61,511.32"/>
		<path id="path4910" class="st1" d="M404.85,500.51l0.34,0.44l0.39,0.39l0.44,0.49l0.39,0.39l-0.24,0.19l-0.44,0.44l-0.44,0.39
			l-0.14,0.2v0.42c0,3.87,1.33,7.36,3.21,8.38c0.29,0.16,0.42,0.29,0.42,0.43l-0.03,0.06l-0.39,0.1h-0.44
			c-0.57,0-1.58-0.18-2.24-0.39l-0.49,3.5h-0.69l-0.49-3.5c-0.79,0.25-1.65,0.39-2.43,0.39c-0.53,0-0.64-0.03-0.64-0.19
			c0-0.14,0.12-0.25,0.44-0.39c0.39-0.17,1.1-0.89,1.51-1.56c0.77-1.23,1.21-2.29,1.21-2.92c0-1.05,0.16-1.9,0.34-1.9l0.1-1.8
			l0.05-0.63c-0.08-0.09-0.15-0.15-0.19-0.2c-0.21-0.22-0.34-0.35-0.39-0.39l-0.49-0.44l-0.19-0.19l0.39-0.39l0.44-0.49l0.39-0.39
			L404.85,500.51"/>
		<path id="path4914" class="st1" d="M332.83,550.79c0.38,0.52,0.44,0.6,1.12,1.26c0.09,0.09,0.22,0.21,0.39,0.39l-0.19,0.19
			l-0.49,0.44l-0.38,0.44l-0.2,0.19l0.05,0.63l0.1,1.8c0.08,1.59,0.75,3.64,1.56,4.81c0.54,0.78,1.13,1.39,1.51,1.56
			c0.32,0.14,0.44,0.25,0.44,0.4c0,0.16-0.12,0.19-0.69,0.19c-0.76,0-1.75-0.16-2.38-0.39l-0.48,3.51h-0.69l-0.48-3.51
			c-0.66,0.21-1.67,0.39-2.24,0.39h-0.44c-0.29,0-0.41-0.05-0.41-0.17c0-0.14,0.13-0.27,0.41-0.42c0.46-0.25,1.13-0.93,1.51-1.56
			c0.86-1.43,1.26-2.37,1.26-2.91c0-1.05,0.13-1.9,0.29-1.9l0.1-1.8l0.05-0.63l-0.15-0.19l-0.44-0.44l-0.44-0.44l-0.24-0.19
			c0.17-0.18,0.3-0.3,0.39-0.39c0.23-0.23,0.38-0.38,0.44-0.44c0.08-0.08,0.21-0.23,0.39-0.44
			C332.57,551.09,332.68,550.95,332.83,550.79"/>
		<path id="path4918" class="st1" d="M350.21,550.79c0.38,0.52,0.44,0.6,1.12,1.26c0.08,0.09,0.21,0.21,0.39,0.39l-0.19,0.19
			l-0.49,0.44l-0.39,0.44l-0.19,0.19l0.05,0.63l0.1,1.8c0.09,1.59,0.75,3.64,1.56,4.81c0.53,0.78,1.12,1.39,1.51,1.56
			c0.32,0.14,0.44,0.25,0.44,0.4c0,0.16-0.12,0.19-0.69,0.19c-0.76,0-1.75-0.16-2.38-0.39l-0.49,3.51h-0.69l-0.49-3.51
			c-0.65,0.21-1.67,0.39-2.24,0.39h-0.44c-0.28,0-0.41-0.05-0.41-0.17c0-0.14,0.13-0.27,0.41-0.42c0.47-0.25,1.13-0.93,1.51-1.56
			c0.86-1.43,1.26-2.37,1.26-2.91c0-1.05,0.13-1.9,0.3-1.9l0.09-1.8l0.05-0.63l-0.14-0.19l-0.44-0.44l-0.44-0.44l-0.24-0.19
			c0.17-0.18,0.3-0.3,0.39-0.39c0.23-0.23,0.38-0.38,0.44-0.44c0.08-0.08,0.2-0.23,0.39-0.44
			C349.94,551.09,350.05,550.95,350.21,550.79"/>
		<path id="path4922" class="st1" d="M341.35,566.55l0.22,0.51l0.46,0.31l0.44,0.49l0.39,0.39l-0.19,0.19l-0.49,0.44
			c-0.05,0.04-0.18,0.17-0.39,0.39c-0.04,0.04-0.11,0.11-0.19,0.19l0.05,0.63l0.1,1.8c0.14,2.64,1.62,5.71,3.07,6.37
			c0.33,0.16,0.44,0.25,0.44,0.38l-0.05,0.11l-0.34,0.14l-0.44-0.05l-0.97-0.1c-0.21-0.02-0.48-0.07-0.83-0.14l-0.44-0.1l-0.54,3.5
			h-0.63l-0.49-3.5l-0.49,0.1l-0.82,0.14l-0.93,0.1l-0.44,0.05l-0.05,0.01c-0.22,0-0.36-0.09-0.36-0.23c0-0.14,0.12-0.26,0.4-0.42
			c0.48-0.25,1.13-0.92,1.51-1.55c0.86-1.44,1.26-2.38,1.26-2.92c0-1.05,0.13-1.9,0.29-1.9l0.1-1.8l0.05-0.63l-0.15-0.19l-0.44-0.39
			l-0.44-0.44l-0.25-0.19l0.39-0.39l0.44-0.49l0.39-0.39L341.35,566.55"/>
		<path id="path4926" class="st1" d="M332.74,582.61l0.34,0.44l0.39,0.39l0.44,0.49l0.32,0.46l-0.17,0.13l-0.44,0.44l-0.44,0.39
			l-0.14,0.19l0.05,0.63l0.1,1.8c0.15,2.66,1.53,5.53,3.07,6.37c0.29,0.16,0.42,0.29,0.42,0.43l-0.03,0.06l-0.39,0.1h-0.44
			c-0.39,0-1.09-0.11-2.24-0.34l-0.49,3.45h-0.68l-0.49-3.45c-1.03,0.24-1.8,0.35-2.44,0.35c-0.5,0-0.62-0.05-0.62-0.23
			c0-0.13,0.12-0.23,0.43-0.37c0.38-0.16,1.12-0.92,1.51-1.55c0.79-1.31,1.26-2.38,1.26-2.92c0-1.05,0.13-1.9,0.29-1.9l0.1-1.8
			l0.05-0.63c-0.09-0.08-0.15-0.15-0.19-0.19c-0.22-0.21-0.35-0.35-0.39-0.39l-0.49-0.44l-0.19-0.2l0.39-0.38l0.44-0.49l0.39-0.39
			L332.74,582.61"/>
		<path id="path4930" class="st1" d="M350.21,582.61l0.29,0.44l0.39,0.39l0.37,0.56l0.46,0.31l-0.19,0.2l-0.49,0.44
			c-0.05,0.04-0.18,0.18-0.39,0.39c-0.04,0.05-0.1,0.11-0.19,0.19l0.05,0.63l0.1,1.8c0.09,1.59,0.75,3.64,1.56,4.82
			c0.53,0.78,1.12,1.38,1.51,1.55c0.32,0.14,0.44,0.25,0.44,0.4c0,0.16-0.12,0.19-0.65,0.19c-0.63,0-1.4-0.11-2.42-0.34l-0.49,3.45
			h-0.69l-0.49-3.45c-1.15,0.23-1.85,0.34-2.24,0.34h-0.44c-0.28,0-0.41-0.05-0.41-0.16c0-0.14,0.13-0.27,0.41-0.42
			c0.47-0.24,1.13-0.92,1.51-1.55c0.86-1.44,1.26-2.38,1.26-2.92c0-1.05,0.13-1.9,0.3-1.9l0.09-1.8l0.05-0.63l-0.14-0.19l-0.44-0.39
			l-0.44-0.44l-0.24-0.2l0.39-0.38l0.44-0.49l0.39-0.39L350.21,582.61"/>
		<path id="path4934" class="st1" d="M341.35,534.92l0.29,0.44l0.39,0.39l0.44,0.49l0.39,0.39l-0.19,0.19l-0.49,0.44
			c-0.05,0.04-0.18,0.17-0.39,0.39c-0.04,0.05-0.11,0.11-0.19,0.2l0.05,0.63l0.1,1.8c0.14,2.63,1.65,5.77,3.07,6.37
			c0.32,0.14,0.43,0.24,0.43,0.38c0,0.17-0.13,0.21-0.62,0.21c-0.64,0-1.41-0.11-2.44-0.34l-0.54,3.5h-0.63l-0.49-3.5
			c-1.15,0.23-1.85,0.33-2.24,0.33h-0.44c-0.28,0-0.41-0.05-0.41-0.17c0-0.14,0.13-0.27,0.41-0.42c0.47-0.24,1.13-0.93,1.51-1.55
			c0.86-1.44,1.26-2.38,1.26-2.92c0-1.05,0.13-1.9,0.29-1.9l0.1-1.8l0.05-0.63l-0.15-0.2l-0.44-0.39l-0.44-0.44l-0.25-0.19
			l0.39-0.39l0.44-0.49l0.39-0.39L341.35,534.92"/>
		<path id="path4938" class="st1" d="M332.59,446.11c0.15,0.17,0.26,0.3,0.34,0.38c0.18,0.21,0.31,0.36,0.39,0.44
			c0.06,0.06,0.2,0.21,0.44,0.44c0.09,0.09,0.22,0.21,0.39,0.39l-0.19,0.19l-0.49,0.44c-0.04,0.04-0.19,0.19-0.44,0.44
			c-0.03,0.03-0.08,0.08-0.15,0.15l0.05,0.68l0.1,1.75c0.09,1.69,0.85,4.05,1.56,4.87l0.97,1.12c0.05,0.06,0.23,0.21,0.54,0.44
			l0.41,0.31l-0.41,0.27l-0.44-0.05l-0.93-0.1l-0.82-0.15l-0.49-0.1l-0.54,3.36l-0.58,0.15l-0.49-3.51l-0.49,0.1l-0.83,0.15
			l-0.93,0.1l-0.51,0.05c-0.18,0-0.32-0.07-0.32-0.16c0-0.09,0.07-0.2,0.2-0.31c0.04-0.03,0.29-0.22,0.73-0.56
			c0.63-0.47,0.81-0.73,1.7-2.48c0.35-0.68,0.54-1.23,0.54-1.61c0-1.05,0.13-1.9,0.29-1.9l0.1-1.75l0.05-0.68l-0.19-0.15l-0.39-0.44
			l-0.49-0.44l-0.19-0.19c0.18-0.18,0.31-0.3,0.39-0.39C332.14,446.71,332.21,446.63,332.59,446.11"/>
		<path id="path4942" class="st1" d="M350.21,446.11c0.38,0.52,0.44,0.6,1.12,1.26c0.08,0.09,0.21,0.21,0.39,0.39l-0.19,0.19
			l-0.49,0.44l-0.39,0.44l-0.19,0.15l0.05,0.68l0.1,1.75c0.14,2.57,1.6,5.64,3.07,6.42c0.25,0.14,0.42,0.26,0.42,0.31
			c0,0.14-0.09,0.25-0.2,0.25l-0.61-0.02l-0.97-0.1c-0.21-0.02-0.48-0.07-0.83-0.15l-0.44-0.1l-0.49,3.51h-0.69l-0.49-3.51
			l-0.53-0.05l-0.78,0.29l-0.93,0.1l-0.44,0.05l-0.06,0c-0.18,0-0.33-0.06-0.33-0.15c0-0.09,0.08-0.2,0.23-0.31l0.7-0.56
			c0.64-0.51,0.86-0.82,1.7-2.48c0.35-0.69,0.53-1.24,0.53-1.61c0-1.05,0.14-1.9,0.3-1.9l0.09-1.75l0.05-0.68l-0.14-0.15l-0.44-0.44
			c-0.22-0.22-0.37-0.37-0.44-0.44c-0.04-0.04-0.12-0.1-0.24-0.19c0.17-0.18,0.3-0.3,0.39-0.39c0.23-0.23,0.38-0.38,0.44-0.44
			c0.08-0.08,0.2-0.23,0.39-0.44C349.94,446.41,350.05,446.28,350.21,446.11"/>
		<path id="path4946" class="st1" d="M341.25,461.34l0.34,0.39l0.39,0.44c0.24,0.26,0.38,0.43,0.44,0.48
			c0.08,0.09,0.21,0.22,0.39,0.39l-0.25,0.19l-0.44,0.44l-0.44,0.38l-0.14,0.2l0.05,0.63l0.05,1.66c0.14,2.66,1.57,5.68,3.11,6.52
			c0.29,0.16,0.42,0.29,0.42,0.43l-0.03,0.06l-0.39,0.1h-0.44c-0.57,0-1.58-0.18-2.24-0.39l-0.49,3.5h-0.68l-0.49-3.5
			c-0.65,0.24-1.62,0.39-2.43,0.39c-0.53,0-0.64-0.04-0.64-0.19c0-0.15,0.12-0.25,0.44-0.39c0.39-0.18,1.1-0.9,1.51-1.56
			c0.77-1.24,1.21-2.3,1.21-2.92c0.01-1.05,0.16-1.9,0.34-1.9l0.1-1.8l0.05-0.63c-0.09-0.09-0.15-0.15-0.19-0.2
			c-0.21-0.22-0.35-0.35-0.39-0.38l-0.49-0.44l-0.19-0.19l0.38-0.39l0.44-0.48c0.23-0.25,0.36-0.4,0.39-0.44
			C341.03,461.65,341.13,461.52,341.25,461.34"/>
		<path id="path4950" class="st1" d="M332.54,476.52l0.34,0.39l0.34,0.44c0.08,0.1,0.23,0.25,0.44,0.44l0.44,0.39
			c-0.14,0.11-0.22,0.17-0.24,0.19l-0.44,0.44l-0.44,0.44l-0.15,0.14l0,0.45c0,2.57,0.76,5.78,1.61,6.7l1.07,1.26
			c0.01,0.01,0.19,0.15,0.54,0.44l0.39,0.31l-0.39,0.27l-0.44-0.05l-0.93-0.1l-0.82-0.14l-0.49-0.1l-0.49,3.5h-0.68l-0.49-3.5
			l-0.49,0.1l-0.82,0.14l-0.93,0.1l-0.44,0.05h-0.06c-0.18,0-0.33-0.06-0.33-0.15c0-0.08,0.08-0.2,0.22-0.31l0.71-0.56
			c1.62-1.29,2.68-4.43,2.68-7.96v-0.45l-0.15-0.14l-0.44-0.44c-0.22-0.23-0.36-0.37-0.44-0.44c-0.04-0.03-0.12-0.1-0.25-0.19
			c0.19-0.17,0.34-0.3,0.44-0.39c0.21-0.18,0.36-0.33,0.44-0.44l0.34-0.44L332.54,476.52"/>
		<path id="path4954" class="st1" d="M350.11,476.52c0.15,0.17,0.26,0.3,0.34,0.39c0.19,0.21,0.31,0.36,0.39,0.44
			c0.06,0.06,0.2,0.21,0.44,0.44c0.09,0.09,0.22,0.22,0.39,0.39c-0.14,0.11-0.22,0.17-0.25,0.19l-0.44,0.44l-0.44,0.44l-0.14,0.14
			l0.05,0.68l0.1,1.8c0.14,2.69,1.19,4.84,3.07,6.38l0.39,0.31l-0.39,0.27l-0.44-0.05l-0.92-0.1l-0.83-0.14l-0.49-0.1l-0.49,3.5
			h-0.68l-0.54-3.65c-0.88,0.2-0.92,0.36-1.22,0.39l-0.97,0.1l-0.44,0.05h-0.05c-0.18,0-0.3-0.06-0.3-0.16c0-0.1,0.07-0.21,0.2-0.31
			l0.73-0.56c0.63-0.49,0.82-0.75,1.7-2.48c0.35-0.68,0.53-1.23,0.53-1.61c0-1.02,0.13-1.85,0.29-1.85l0.1-1.8l0.05-0.68l-0.19-0.14
			l-0.39-0.44l-0.49-0.44l-0.19-0.19c0.17-0.17,0.3-0.3,0.39-0.39C349.66,477.12,349.73,477.05,350.11,476.52"/>
		<path id="path4958" class="st1" d="M313.66,468.69l0.19,0.73c0.18,0.66,0.31,1.18,0.39,1.56c0.62,2.78,1.13,3.51,2.48,3.51
			c0.77,0,1.41-0.43,1.6-1.07l0.3-0.98c0.06-0.22,0.24-0.36,0.47-0.36c0.52,0,0.77,0.55,0.8,1.77c0.01,0.35,0.12,1.15,0.34,2.38
			c0.13,0.74,0.19,1.44,0.19,2.13c0,0.62-0.05,0.88-0.29,1.52c0.17,0.95,0.29,2.24,0.29,2.98c0,1.2-0.22,2.32-0.59,2.91
			c0.21,0.81,0.25,1.13,0.25,1.83c0,0.52-0.05,1.08-0.15,1.63c-0.21,1.17-0.26,1.46-0.26,1.68c0,0.22,0.04,0.44,0.11,0.65
			c0.1,0.28,0.15,0.48,0.15,0.58c0,0.14-0.06,0.25-0.15,0.25l-0.97-0.39l-1.07-0.58c-0.35-0.19-0.59-0.38-1.12-0.88
			c-0.94,0.85-1.23,0.98-3.7,1.65c-0.49,0.13-0.86,0.28-1.07,0.44c-0.31,0.22-0.53,0.34-0.65,0.34c-0.42,0-0.62-0.68-0.62-2.06
			c0-1.03,0.11-1.99,0.3-2.71c-0.73-0.28-1.35-0.44-1.74-0.44c-0.07,0-0.32,0.03-0.74,0.1l-0.18,0.01c-0.14,0-0.26-0.21-0.26-0.47
			c0-0.19,0.13-0.66,0.3-1.06l0.49-1.17c0.18-0.43,0.57-0.91,1.17-1.41c0.48-0.41,0.92-0.66,1.26-0.73l1.75-0.34
			c1.04-0.2,1.66-0.75,1.66-1.48c0-0.7-0.47-1.18-1.51-1.54l-2.09-0.73c-0.54-0.19-1.18-0.5-1.9-0.92
			c-1.16-0.69-1.36-0.78-1.63-0.78c-0.42,0-0.66,0.31-0.66,0.86c0,0.87,0.56,1.47,1.37,1.47c0.16,0,0.33-0.03,0.49-0.1
			c0.23-0.09,0.4-0.15,0.5-0.15c0.22,0,0.34,0.13,0.34,0.37l-0.01,0.21l-0.1,0.83c-0.08,0.71-0.54,1.57-1.56,2.92l-0.44,0.58
			c-0.39,1.57-1.37,2.99-2.63,3.84c-0.31,0.21-0.5,0.35-0.54,0.39c-0.04,0.05-0.17,0.28-0.39,0.68c-0.1,0.19-0.43,0.58-0.97,1.17
			c-0.41,0.45-0.82,0.82-1.22,1.12c-0.54,0.41-0.88,0.71-0.97,0.88l-0.49,0.82c-0.09,0.15-0.24,0.25-0.39,0.25
			c-0.43,0-0.83-0.45-1.07-1.22c-0.18-0.57-0.34-0.73-0.71-0.73c-0.19,0-0.47,0.05-0.85,0.15l-0.68,0.1h-1.76
			c-0.88,0-2.11,0.22-2.68,0.49c-0.22,0.1-0.39,0.16-0.5,0.16c-0.13,0-0.19-0.06-0.33-0.31c-0.08-0.16-0.11-0.24-0.11-0.39
			c0-0.89,0.63-2.56,1.47-3.89c0.53-0.84,0.69-1.04,1.31-1.56c-0.19-0.82-0.73-1.46-1.36-1.65l-0.82-0.24
			c-0.12-0.03-0.2-0.13-0.2-0.24c0-0.25,0.4-0.6,1.12-0.98c0.95-0.5,1.91-0.78,2.67-0.78c0.81,0,1.59,0.32,2.49,1.02
			c1.32,1.03,1.68,1.22,2.32,1.22c1.04,0,2.03-0.95,2.03-1.95c0-0.67-0.36-1.38-1.28-2.58c-1.36-1.76-1.76-2.67-1.76-3.95
			c0-0.8,0.25-1.82,0.55-2.27l0.49-0.73c0.1-0.16,0.16-0.32,0.16-0.47c0-0.32-0.37-0.56-0.88-0.56c-0.77,0-2.24,0.55-3.42,1.26
			c-0.58,0.36-0.98,0.78-0.98,1.04c0,0.15,0.07,0.29,0.2,0.37l0.54,0.34c0.06,0.04,0.1,0.12,0.1,0.2c0,0.07-0.08,0.23-0.2,0.38
			l-0.97,1.26c-0.5,0.65-1.28,1.47-2.05,2.14c-0.25,0.23-0.42,0.39-0.49,0.49c0,0.01-0.13,0.25-0.39,0.73
			c-0.34,0.65-1.27,1.6-2.14,2.19c-0.36,0.25-0.59,0.43-0.69,0.54c-0.07,0.08-0.2,0.31-0.39,0.68c-0.12,0.24-0.33,0.58-0.63,1.02
			c-0.48,0.7-0.87,1.21-1.17,1.5l-1.37,1.36c-0.42,0.42-0.79,1.24-1.36,3.02c-0.35,1.07-0.65,1.7-0.83,1.7
			c-0.08,0-0.22-0.11-0.38-0.29c-0.96-1.1-1.79-1.76-2.23-1.76c-0.1,0-0.29,0.08-0.54,0.25c-0.36,0.23-0.8,0.39-1.32,0.49l-1.8,0.34
			c-1.36,0.26-1.89,0.56-2.68,1.46c-0.19,0.22-0.34,0.34-0.42,0.34c-0.15,0-0.26-0.25-0.26-0.57l0.06-0.45l0.24-1.32
			c0.26-1.4,0.58-2.45,0.97-3.16l0.82-1.51c0.16-0.29,0.25-0.56,0.25-0.79c0-1.12-1.16-2.14-2.57-2.27c-0.36-0.03-0.5-0.12-0.5-0.31
			c0-0.25,0.4-0.74,0.94-1.14c0.98-0.74,2.25-1.27,3.07-1.27c0.5,0,1.25,0.2,2.19,0.59l1.07,0.44c0.4,0.17,0.76,0.25,1.08,0.25
			c1.13,0,2.23-1.03,3.59-3.36c0.61-1.05,0.88-1.81,0.88-2.5c0-1.23-0.58-1.98-1.55-1.98c-0.73,0-1.53,0.35-2.1,0.93
			c-0.49,0.49-0.75,1-0.75,1.5l0.02,0.54l0,0.12c0,0.45-0.15,0.7-0.42,0.7c-0.46,0-1.13-0.65-3.04-2.97
			c-1.43-1.73-1.74-2.46-1.8-4.19c-1.65-2.11-2.06-3-2.06-4.5l0.07-1c-1.14-1.38-1.47-2.13-1.47-3.39c0-0.46,0.07-0.73,0.35-1.28
			c-0.58-0.85-0.77-1.24-0.93-1.9l-0.25-1.02c-0.16-0.69-0.43-1.3-0.78-1.8c-0.44-0.63-0.49-0.71-0.49-0.93
			c0-0.57,0.39-0.79,2.09-1.21c-0.06-0.47-0.1-0.83-0.1-1.08c0-0.28,0.04-0.56,0.15-1.16l0.34-1.8c0.14-0.72,0.21-1.25,0.21-1.56
			c0-0.33-0.06-0.57-0.35-1.55c-0.17-0.56-0.32-0.93-0.44-1.12c-0.16-0.25-0.29-0.56-0.29-0.67c0-0.18,0.12-0.27,0.33-0.27
			c0.48,0,1.76,0.77,3.07,1.86c2.79,2.32,3.37,3.24,3.75,6.03c0.03,0.22,0.08,0.54,0.15,0.98c1.34,0.99,2.04,2.17,2.04,3.45
			c0,1.01-0.37,2.18-0.98,3.12l-0.97,1.51c-0.28,0.44-0.44,1-0.44,1.61c0,0.92,0.26,1.76,0.92,2.92c0.75,1.32,1.38,1.85,2.17,1.85
			c1.28,0,2.41-2.24,2.41-4.77v-0.34l-0.01-0.88c0-0.49,0.03-0.98,0.1-1.6c0.09-0.75,0.14-1.23,0.15-1.41l0.05-1.17l0.01-0.77
			c0-0.27-0.15-0.55-0.5-0.93l-1.07-1.17c-1.55-1.69-2.4-3.27-2.4-4.46c0-1.48,1.07-2.58,2.49-2.58c0.28,0,0.54,0.05,1.03,0.19
			v-0.33c0-2.14,0.44-3.73,1.03-3.73l0.24,0.07l0.88,0.78l1.07,0.68l0.29,0.29c0-0.6,0.03-0.67,0.63-1.36
			c0.14-0.17,0.37-0.48,0.68-0.93c0.25-0.36,0.41-0.6,0.49-0.73c0.07-0.13,0.16-0.27,0.25-0.44c0.13-0.25,0.26-0.37,0.4-0.37
			c0.13,0,0.25,0.18,0.42,0.71c0.12,0.33,0.19,0.42,1.02,1.17c0.29,0.26,0.49,0.48,0.58,0.63c0.08,0.13,0.21,0.46,0.39,0.97
			c0.03,0.08,0.08,0.21,0.15,0.39c0.36-0.46,0.54-0.62,0.97-0.88l0.73-0.44c0.27-0.16,0.46-0.25,0.54-0.25
			c0.06,0,0.15,0.12,0.24,0.3c0.08,0.17,0.21,0.42,0.39,0.73c0.52,0.9,0.69,1.34,0.69,1.76l-0.01,0.48v0.58
			c1.6,0.5,2.19,1.33,2.19,3.05c0,1.24-0.65,2.67-1.9,4.16c-0.83,1-0.94,1.19-0.94,1.89c0,3.6,2.51,5.68,6.92,5.75l3.26,0.05
			c2.1,0.03,3.35,0.24,5.31,0.88c2.31,0.75,2.99,0.93,3.65,0.93c0.23,0,0.45-0.07,0.63-0.19c0.18-0.13,0.29-0.29,0.29-0.44
			c0-0.68-1.19-1.23-5.11-2.34c-8.02-2.27-11.43-5.5-11.43-10.82c0-4.11,3.42-7.29,7.84-7.29c1.42,0,3.61,0.38,4.87,0.83l1.99,0.73
			c0.37,0.13,0.72,0.2,1.05,0.2c0.68,0,1.03-0.56,1.05-1.71c0.01-0.62,0.16-0.83,0.56-0.83c0.56,0,1.43,0.7,2.22,1.81
			c0.81,1.11,1.32,2.36,1.32,3.2c0,1.1-0.52,1.88-1.71,2.54c-1.09,1.66-2.44,2.44-4.24,2.44c-1.41,0-3.4-0.8-6.71-2.68
			c-1.15-0.66-1.74-0.88-2.35-0.88c-0.86,0-1.42,0.5-1.42,1.26c0,0.7,0.55,1.16,1.97,1.65c2.1,0.74,2.62,1.02,3.45,1.9
			c2.48,0.43,3.56,0.86,5.11,2.05c4.27,1.35,6.92,4.26,6.92,7.61c0,3.25-2.19,5.58-5.25,5.58
			C315.23,468.98,314.78,468.93,313.66,468.69"/>
		<path id="path4962" class="st1" d="M404.46,468.69l0.19,0.73c0.18,0.66,0.31,1.18,0.39,1.56c0.61,2.78,1.13,3.51,2.48,3.51
			c0.77,0,1.41-0.43,1.61-1.07l0.29-0.98c0.07-0.22,0.24-0.35,0.46-0.35c0.53,0,0.82,0.58,0.85,1.76c0.01,0.45,0.11,1.25,0.29,2.38
			c0.13,0.82,0.19,1.57,0.19,2.26c0,0.49-0.06,0.78-0.29,1.39l0.1,0.58c0.16,0.96,0.2,1.33,0.2,1.78c0,2.09-0.1,2.71-0.59,3.52
			c0.2,0.8,0.25,1.17,0.25,1.74c0,0.37-0.05,0.89-0.16,1.71l-0.19,1.46l0.05,0.88c0.13,0.32,0.19,0.52,0.19,0.58
			c0,0.14-0.08,0.25-0.19,0.25l-0.97-0.39l-1.07-0.58c-0.35-0.19-0.59-0.38-1.12-0.88c-0.94,0.83-1.07,0.91-2.19,1.21
			c-1.61,0.44-2.21,0.65-2.53,0.88c-0.31,0.22-0.55,0.34-0.67,0.34c-0.38,0-0.64-0.73-0.64-1.81c0-1.56,0.09-2.36,0.34-2.96
			c-0.95-0.32-1.43-0.44-1.77-0.44c-0.13,0-0.2,0.01-0.71,0.1l-0.22,0.02c-0.14,0-0.23-0.18-0.23-0.47c0-0.47,0.34-1.43,0.79-2.23
			c0.61-1.09,1.61-1.99,2.38-2.14l1.76-0.34c1.04-0.2,1.66-0.75,1.66-1.48c0-0.7-0.46-1.16-1.51-1.54l-2.04-0.73
			c-0.69-0.25-1.34-0.55-1.94-0.92c-0.52-0.31-0.88-0.52-1.07-0.63c-0.18-0.09-0.36-0.14-0.53-0.14c-0.44,0-0.69,0.31-0.69,0.83
			c0,0.83,0.64,1.51,1.41,1.51c0.17,0,0.34-0.04,0.49-0.1c0.22-0.09,0.38-0.15,0.45-0.15c0.22,0,0.38,0.22,0.38,0.52
			c0,0.86-0.55,2.36-1.13,3.08l-0.58,0.73l-0.44,0.58c-0.17,1.25-1.39,3.05-2.63,3.84c-0.3,0.19-0.48,0.32-0.54,0.39
			c-0.04,0.05-0.17,0.28-0.39,0.68c-0.1,0.19-0.43,0.58-0.97,1.17c-0.41,0.45-0.82,0.82-1.21,1.12c-0.55,0.41-0.88,0.71-0.98,0.88
			l-0.49,0.82c-0.1,0.17-0.22,0.25-0.38,0.25c-0.44,0-0.83-0.45-1.08-1.23c-0.18-0.57-0.33-0.73-0.7-0.73
			c-0.19,0-0.48,0.05-0.85,0.15l-0.68,0.1h-1.7c-0.92,0-2.16,0.22-2.73,0.49c-0.22,0.1-0.39,0.16-0.5,0.16
			c-0.25,0-0.38-0.25-0.38-0.75c0-1.54,1.19-3.89,2.73-5.4c-0.23-0.89-0.7-1.49-1.32-1.65c-0.55-0.15-0.85-0.23-0.88-0.24
			c-0.09-0.05-0.15-0.14-0.15-0.24c0-0.31,0.35-0.62,1.12-0.98c1.38-0.65,1.79-0.78,2.56-0.78c0.88,0,1.63,0.3,2.55,1.02
			c1.32,1.03,1.69,1.22,2.32,1.22c1.04,0,2.03-0.95,2.03-1.94c0-0.68-0.37-1.42-1.28-2.58c-1.3-1.66-1.76-2.74-1.76-4.14
			c0-0.94,0.19-1.45,1.03-2.82c0.13-0.22,0.2-0.39,0.2-0.52c0-0.26-0.44-0.5-0.94-0.5c-0.52,0-1.17,0.19-2.04,0.58
			c-1.47,0.68-2.34,1.3-2.34,1.69c0,0.15,0.09,0.3,0.25,0.41l0.49,0.34c0.06,0.05,0.1,0.12,0.1,0.2c0,0.08-0.09,0.25-0.2,0.38
			c-0.1,0.11-0.42,0.53-0.97,1.26c-0.68,0.91-1.33,1.58-2.04,2.14c-0.26,0.2-0.42,0.37-0.49,0.49l-0.39,0.73
			c-0.32,0.61-1.28,1.62-2.09,2.19c-0.37,0.26-0.6,0.44-0.69,0.54c-0.1,0.11-0.25,0.34-0.44,0.68c-0.5,0.89-1.28,1.99-1.8,2.53
			l-1.32,1.36c-0.38,0.39-0.9,1.52-1.41,3.02c-0.4,1.18-0.65,1.7-0.83,1.7c-0.08,0-0.22-0.11-0.38-0.29
			c-0.94-1.08-1.79-1.76-2.21-1.76c-0.11,0-0.3,0.09-0.56,0.25c-0.38,0.23-0.82,0.39-1.32,0.49l-1.75,0.34
			c-1.46,0.29-2.05,0.6-2.73,1.46c-0.17,0.22-0.31,0.34-0.38,0.34c-0.18,0-0.3-0.25-0.3-0.6l0.05-0.43c0.01-0.05,0.1-0.49,0.25-1.32
			c0.25-1.38,0.61-2.53,0.97-3.16l0.88-1.51c0.16-0.27,0.25-0.55,0.25-0.79c0-1.12-1.05-2.03-2.63-2.28
			c-0.32-0.05-0.49-0.17-0.49-0.36c0-0.22,0.38-0.65,0.98-1.1c1.03-0.78,2.17-1.26,2.98-1.26c0.54,0,1.26,0.19,2.23,0.58l1.07,0.44
			c0.4,0.17,0.77,0.25,1.08,0.25c1.13,0,2.23-1.03,3.59-3.36c0.62-1.06,0.88-1.81,0.88-2.51c0-1.23-0.57-1.97-1.53-1.97
			c-0.75,0-1.48,0.32-2.07,0.93c-0.53,0.54-0.81,1.07-0.81,1.55l0.03,0.5l0.02,0.25c0,0.39-0.13,0.57-0.42,0.57
			c-0.37,0-0.8-0.36-1.64-1.36c-0.35-0.42-0.8-0.95-1.36-1.61c-1.48-1.73-1.79-2.42-1.85-4.19c-1.65-2.11-2.06-3.27-2.06-4.5l0.06-1
			c-1.19-1.42-1.41-1.97-1.41-3.38c0-0.63,0.04-0.79,0.29-1.3c-0.58-0.85-0.77-1.24-0.93-1.9l-0.24-1.02
			c-0.17-0.69-0.43-1.29-0.78-1.8c-0.44-0.63-0.49-0.72-0.49-0.9c0-0.51,0.49-0.84,1.7-1.14l0.39-0.1c-0.06-0.47-0.1-0.83-0.1-1.08
			c0-0.28,0.04-0.56,0.15-1.16l0.34-1.8c0.13-0.7,0.2-1.24,0.2-1.59c0-0.42-0.06-0.75-0.3-1.52c-0.15-0.5-0.32-0.87-0.49-1.12
			c-0.19-0.27-0.29-0.5-0.29-0.64c0-0.17,0.17-0.3,0.38-0.3c0.12,0,0.32,0.06,0.49,0.16c1.64,0.89,3.44,2.32,4.72,3.74
			c1.1,1.23,1.45,2.25,1.7,4.97c1.49,1.11,2.05,2.12,2.05,3.69c0,0.94-0.31,1.84-0.98,2.88c-0.59,0.91-0.92,1.42-0.97,1.51
			c-0.29,0.49-0.44,1.06-0.44,1.65c0,0.88,0.26,1.7,0.93,2.88c0.73,1.29,1.38,1.85,2.15,1.85c1.27,0,2.43-2.2,2.43-4.64l-0.01-0.48
			v-1.32l0.14-1.17l0.1-1.41l0.1-1.17l0.04-0.65c0-0.48-0.1-0.62-1.59-2.22c-1.65-1.77-2.44-3.26-2.44-4.64
			c0-1.31,1.13-2.4,2.48-2.4c0.28,0,0.54,0.05,1.03,0.19v-0.58l0.05-1.03l0.29-1.26c0.24-1.01,0.34-1.19,0.69-1.19l0.24,0.07
			l0.88,0.78l1.07,0.68l0.29,0.29c0.06-0.61,0.12-0.73,0.63-1.36c0.25-0.31,0.48-0.63,0.68-0.93l0.49-0.73l0.29-0.44
			c0.19-0.29,0.28-0.37,0.4-0.37c0.13,0,0.22,0.17,0.37,0.71c0.06,0.22,0.22,0.44,0.44,0.63l0.63,0.54c0.51,0.44,0.86,1.07,1.07,2
			c0.38-0.48,0.57-0.65,0.97-0.88l0.78-0.44c0.29-0.16,0.46-0.25,0.51-0.25c0.05,0,0.14,0.11,0.22,0.29
			c0.11,0.25,0.25,0.5,0.39,0.73c0.63,1.01,0.69,1.15,0.69,1.83l0,0.41v0.58c1.58,0.44,2.19,1.29,2.19,3.03
			c0,1.31-0.6,2.66-1.85,4.17c-0.83,1-0.98,1.31-0.98,2.06c0,3.44,2.59,5.51,6.96,5.58l3.21,0.05c2.1,0.03,3.38,0.25,5.3,0.88
			c2.26,0.74,2.99,0.93,3.67,0.93c0.5,0,0.9-0.27,0.9-0.61c0-0.7-1.18-1.25-5.11-2.36c-8.02-2.26-11.44-5.51-11.44-10.82
			c0-4.12,3.43-7.29,7.87-7.29c1.4,0,3.58,0.38,4.83,0.83l2,0.73c0.36,0.13,0.72,0.2,1.04,0.2c0.69,0,0.95-0.43,1.05-1.71
			c0.04-0.57,0.23-0.83,0.59-0.83c0.51,0,1.5,0.81,2.23,1.81c0.74,1.02,1.26,2.38,1.26,3.26c0,1.03-0.54,1.82-1.7,2.47
			c-1.09,1.66-2.44,2.44-4.25,2.44c-1.38,0-3.73-0.94-6.71-2.68c-1.17-0.68-1.68-0.88-2.33-0.88c-0.88,0-1.44,0.5-1.44,1.26
			c0,0.7,0.52,1.14,1.97,1.65c2.3,0.82,2.8,1.09,3.45,1.9c2.48,0.43,3.56,0.86,5.11,2.05c4.44,1.42,6.91,4.17,6.91,7.68
			c0,3.2-2.17,5.51-5.19,5.51C406.03,468.98,405.61,468.93,404.46,468.69"/>
		<path id="path4966" class="st1" d="M314.59,560.56c0.43,1.07,0.57,1.6,0.63,2.29l0.1,2.04c0.08,2.05,0.76,3.07,2.04,3.07
			c0.47,0,0.86-0.13,1.07-0.34l0.54-0.53l0.21-0.06c0.34,0,0.52,0.22,0.52,0.63l-0.06,0.79c-0.04,0.36,0.02,1.11,0.19,2.24
			c0.1,0.66,0.15,1.32,0.15,1.96c0,1.04-0.07,1.44-0.44,2.37c0.34,0.96,0.53,2.04,0.53,2.94c0,1.06-0.18,1.77-0.58,2.37
			c0.19,0.84,0.25,1.18,0.25,1.65c0,0.48-0.06,1.1-0.19,1.85c-0.18,1.01-0.24,1.8-0.19,2.33l0,0.12c0,0.31-0.1,0.46-0.28,0.46
			c-0.19,0-0.41-0.14-0.6-0.39c-0.3-0.38-0.49-0.52-0.71-0.52c-0.34,0-0.44,0.18-0.94,1.64c-0.15,0.45-0.55,1.06-1.17,1.8
			c-0.48,0.58-0.78,1.06-0.88,1.41c-0.16,0.59-0.25,0.93-0.29,1.02c-0.06,0.13-0.17,0.23-0.29,0.24l-0.06,0.01
			c-0.8,0-1.72-1.72-2.66-4.97c-0.26-0.92-0.6-1.32-1.1-1.32c-0.35,0-0.71,0.23-0.85,0.55l-0.29,0.68
			c-0.05,0.12-0.15,0.19-0.25,0.19c-0.39,0-0.98-0.71-1.35-1.61c-0.3-0.74-0.47-1.55-0.47-2.24c0-1.52,1.12-2.67,4.51-4.58
			c1.48-0.83,2.05-1.88,2.05-3.8c0-1.51-0.45-2.37-1.76-3.36c-1.02-0.77-1.62-1.07-2.17-1.07c-0.46,0-0.82,0.31-0.82,0.7
			c0,0.45,0.26,0.74,0.89,0.95c0.75,0.27,1.08,0.53,1.08,0.87c0,0.31-0.31,0.97-0.83,1.76c-0.55,0.84-0.79,1.09-1.56,1.61
			c-0.23,1.34-0.86,2.2-2.34,3.16c-0.29,0.84-0.46,1.14-0.97,1.8l-1.02,1.32c-0.32,0.41-0.68,1.15-0.73,1.51
			c-0.11,0.74-0.18,0.88-0.46,0.88c-0.38,0-1.18-0.69-1.97-1.7c-0.47-0.61-0.58-0.88-0.63-1.61c-0.51,0.4-0.67,0.45-1.65,0.58
			c-0.59,0.08-1.04,0.19-1.32,0.34c-0.75,0.39-0.99,0.5-1.13,0.5c-0.2,0-0.27-0.11-0.28-0.45l-0.05-1.07c0-1.47,0.58-3.19,1.46-4.33
			c-0.85-0.74-1.7-1.19-2.38-1.27c-0.29-0.03-0.36-0.06-0.36-0.17c0-0.18,0.19-0.56,0.46-0.9c0.36-0.46,0.65-0.78,0.88-0.97
			c0.69-0.59,1.88-1.02,2.82-1.02c0.63,0,1.57,0.23,2.77,0.68c0.44,0.17,0.83,0.25,1.16,0.25c0.54,0,0.84-0.34,0.84-0.96
			c0-0.88-0.44-2.27-1.41-4.49c-0.67-1.51-0.97-2.51-0.97-3.21c0-1.69,0.8-3.44,1.79-3.94c-0.47-0.24-0.68-0.3-1.08-0.3
			c-0.49,0-0.87,0.12-1.5,0.49c-0.72,0.43-1.12,0.79-1.12,1.04c0,0.09,0.14,0.25,0.39,0.42c0.38,0.26,0.44,0.36,0.44,0.72
			c0,1.2-1,2.81-2.39,3.86c-0.31,1.7-1.09,2.73-2.63,3.45c-0.2,0.93-0.33,1.2-1.07,2.24c-1.27,1.79-1.57,2.35-1.8,3.36
			c-0.12,0.52-0.24,0.74-0.4,0.74c-0.2,0-0.63-0.32-1.11-0.84c-0.41-0.44-0.67-0.75-0.78-0.93c-0.21-0.32-0.31-0.63-0.54-1.56
			c-0.35,0.1-0.44,0.12-0.69,0.12l-0.72-0.02l-0.49-0.01c-1.07,0-2.2,0.25-2.77,0.6c-0.21,0.13-0.36,0.19-0.42,0.19
			c-0.32,0-0.57-0.66-0.57-1.48c0-1.76,0.49-3.2,1.63-4.8c-0.42-0.35-0.56-0.48-0.92-0.88c-0.16-0.18-0.3-0.29-0.39-0.34l-0.53-0.29
			c-0.18-0.1-0.29-0.22-0.29-0.32c0-0.26,0.71-0.94,1.56-1.48c0.94-0.61,1.68-0.88,2.36-0.88c0.8,0,1.22,0.2,2.22,1.07
			c0.69,0.6,1.16,0.88,1.5,0.88c0.24,0,0.49-0.17,0.69-0.44c0.16-0.23,0.25-0.48,0.25-0.73c0-0.93-1.11-2.5-2.34-3.32
			c-0.92-0.6-1.92-0.92-2.9-0.92c-1.36,0-2.52,0.67-3.04,1.75l-0.54,1.12c-0.13,0.26-0.28,0.39-0.46,0.39
			c-0.31,0-0.47-0.14-1.58-1.42l-1.26-1.46c-0.39-0.45-0.65-0.88-0.78-1.26c-0.11-0.36-0.19-0.57-0.24-0.63
			c-0.05-0.06-0.21-0.19-0.49-0.39c-0.98-0.69-1.69-2.06-2.09-4.04c-0.03-0.14-0.08-0.35-0.15-0.63c-1.19-1.46-1.9-3.27-1.9-4.83
			c0-0.21,0.01-0.3,0.11-0.66c-0.69-0.7-0.77-0.87-1.32-2.73c-0.39-1.32-0.63-1.89-1.12-2.53c-0.13-0.17-0.19-0.3-0.19-0.38
			c0-0.26,0.41-0.48,1.12-0.59c0.67-0.11,0.71-0.12,0.98-0.12l0.97,0.06l-0.06-1.33c0-0.78,0.06-1.3,0.25-2.22
			c0.1-0.46,0.15-0.8,0.15-1.02c0-0.08-0.03-0.36-0.1-0.83c-0.05-0.37-0.1-0.61-0.15-0.73c-0.07-0.18-0.11-0.32-0.11-0.41
			c0-0.16,0.11-0.24,0.3-0.24c0.13,0,0.34,0.07,0.64,0.21c0.85,0.42,1.55,0.84,2.09,1.26c1.68,1.32,3,3.33,3,4.59l-0.03,0.38
			c-0.06,0.44-0.1,0.68-0.1,0.72c0,0.21,0.12,0.49,0.34,0.79l0.54,0.73c0.48,0.65,0.78,1.4,0.78,1.91c0,0.45-0.1,0.65-0.88,1.79
			c-0.59,0.85-0.83,1.48-0.83,2.18c0,0.88,0.35,1.98,0.98,3.07c0.57,1.01,1.24,1.57,1.87,1.57c1.09,0,1.56-0.96,1.73-3.56
			c0.09-1.35,0.22-2.57,0.39-3.7l0.05-0.67c0-0.3-0.09-0.48-0.49-0.94l-1.46-1.7c-1.4-1.62-1.82-2.46-1.82-3.63
			c0-1.34,0.88-2.27,2.15-2.27l0.58,0.06l0-0.38c0-0.31,0.08-0.75,0.25-1.32c0.31-1.05,0.69-1.85,0.89-1.85
			c0.06,0,0.23,0.08,0.47,0.25c0.07,0.05,0.37,0.17,0.88,0.34c0.27,0.1,0.47,0.19,0.97,0.49c0.23-0.84,0.41-1.22,0.78-1.7
			c0.63-0.81,1.34-1.46,1.59-1.46c0.15,0,0.44,0.21,0.79,0.58l0.93,0.98c0.15,0.16,0.33,0.48,0.54,0.92l0.19,0.44
			c0.25-0.15,0.45-0.26,0.58-0.34c0.38-0.23,0.64-0.37,0.78-0.44c0.59-0.28,0.9-0.43,0.92-0.44c0.25-0.16,0.43-0.25,0.5-0.25
			c0.16,0,0.26,0.29,0.62,1.9c0.25,1.11,0.28,1.34,0.34,2.14c1.55,0.22,2.29,1.11,2.29,2.78c0,1.57-0.77,3.13-2.44,4.91
			c-0.45,0.49-0.56,0.71-0.56,1.17c0,4.31,1.5,5.66,6.89,6.23c3.32,0.35,4.3,0.56,8.28,1.76c2.09,0.63,3.29,0.89,4.07,0.89
			c0.92,0,1.44-0.33,1.44-0.93c0-0.9-0.65-1.19-4.53-2.01c-9.02-1.9-12.56-4.98-12.56-10.92c0-4.24,3.18-7.43,7.41-7.43
			c1.86,0,3.53,0.57,6.17,2.09c2.45,1.42,2.95,1.66,3.51,1.66c0.65,0,0.91-0.42,0.91-1.47c0-0.68,0.21-1.01,0.63-1.01
			c0.38,0,0.98,0.4,1.51,1.03c0.81,0.95,1.12,1.44,1.12,2.76c0,1.76-0.94,2.91-2.77,3.42c-0.19,0.22-0.34,0.38-0.44,0.49
			c-1,1.13-1.88,1.51-3.48,1.51c-1.38,0-3.12-0.57-4.31-1.41l-2.33-1.65c-1.01-0.71-1.75-1.02-2.45-1.02c-1,0-1.59,0.6-1.59,1.59
			c0,0.98,0.64,1.77,1.7,2.1l2.19,0.68c0.78,0.25,1.15,0.4,2.09,0.88c0.54-0.08,0.79-0.1,1.09-0.1c1.36,0,2.83,0.37,4.12,1.03
			c0.41,0.21,0.7,0.34,0.87,0.39l1.22,0.34c2.76,0.77,5.02,3.86,5.02,6.88c0,3.44-2.23,5.58-5.84,5.58L314.59,560.56"/>
		<path id="path4970" class="st1" d="M399.26,559.83c0.85,1.12,2.04,1.85,3.02,1.85c0.3,0,0.83-0.08,1.31-0.2
			c0.26-0.06,0.48-0.1,0.65-0.1c0.24,0,0.33,0.09,0.33,0.31c0,0.17-0.12,0.58-0.25,0.91c-0.15,0.37-0.25,0.66-0.29,0.88l-0.19,1.02
			l-0.49,0.88l-0.68,0.63l-0.19,0.19v0.44v0.22c0,1.19-0.35,1.86-1.32,2.51c-0.08,0.05-0.19,0.13-0.34,0.24l-0.1,0.39
			c-0.21,0.9-0.38,1.47-0.49,1.7c-0.12,0.26-0.43,0.71-0.92,1.36c-0.59,0.77-0.97,1.4-1.22,2c-0.2,0.49-0.35,0.62-0.67,0.62
			c-0.48,0-0.95-0.59-1.03-1.31c-0.11,0.15-0.19,0.25-0.24,0.29l-0.58,0.39l-0.93,0.63c-0.41,0.28-0.67,0.47-0.78,0.58l-0.54,0.54
			c-0.09,0.09-0.19,0.14-0.28,0.14c-0.25,0-0.5-0.42-0.74-1.22l-0.49-1.6c-0.13-0.43-0.19-0.96-0.19-1.57
			c0-0.81,0.06-1.09,0.34-1.74c-0.98,0.11-1.25,0.16-1.75,0.34c-0.15,0.05-0.34,0.1-0.43,0.1c-0.16,0-0.26-0.11-0.26-0.3
			c0-0.11,0.09-0.44,0.19-0.72l0.63-1.65c0.49-1.28,2.07-2.45,3.33-2.45c0.3,0,0.71,0.09,1.24,0.26c0.32,0.1,0.57,0.16,0.74,0.16
			c0.56,0,1.01-0.42,1.01-0.94c0-0.25-0.17-0.54-0.39-0.63c-0.08-0.04-0.67-0.22-1.75-0.54c-0.82-0.24-1.22-0.54-2.14-1.6
			c-0.67-0.77-0.93-0.99-1.17-0.99c-0.19,0-0.29,0.13-0.29,0.34l0.05,0.65l0.02,0.3c0,1.35-0.4,2.64-1.38,4.42l-1.37,2.48
			c-0.64,1.18-0.93,2.07-0.93,2.97c0,0.98,0.43,1.85,0.98,2l0.73,0.19c0.09,0.02,0.17,0.07,0.24,0.15c0.09,0.1,0.15,0.2,0.15,0.28
			c0,0.11-0.09,0.27-0.25,0.45c-0.08,0.1-0.38,0.47-0.88,1.12c-0.84,1.09-1.37,1.49-2.38,1.8c-0.59,1.43-1.55,2.26-3.26,2.82
			l-0.19,0.34c-0.58,1.02-1.87,1.95-2.69,1.95h-0.19c-0.12,0.89-0.75,1.82-1.7,2.48c-0.66,0.46-1.04,0.74-1.12,0.83
			c-0.06,0.06-0.14,0.21-0.24,0.44c-0.22,0.49-0.42,0.69-0.69,0.69c-0.52,0-0.95-0.49-1.25-1.42c-0.2,0.13-0.35,0.23-0.44,0.3
			c-0.55,0.39-0.86,0.6-0.93,0.63c-0.22,0.11-0.79,0.27-1.7,0.49c-1.19,0.28-2.22,0.79-2.48,1.22l-0.44,0.73l-0.2,0.09
			c-0.24,0-0.51-0.33-0.63-0.77c-0.27-1.01-0.44-2.06-0.44-2.73c0-1.73,0.57-2.85,2.34-4.62l0-0.42c0-2.69,2.05-4.51,5.07-4.51
			l0.49,0.01l1.65,0.1l0.16,0c0.89,0,1.72-0.34,2.62-1.08c1.19-0.97,1.53-1.57,1.53-2.66c0-0.34-0.09-0.74-0.46-1.96
			c-0.24-0.81-0.36-1.56-0.36-2.29c0-2.01,1.47-4.51,3.47-5.89c0.51-0.36,0.9-0.82,0.9-1.1c0-0.11-0.06-0.2-0.13-0.2
			c-0.13,0-0.35,0.13-0.62,0.38c-0.24,0.21-0.63,0.46-1.17,0.73l-0.78,0.39l-0.88,0.34c-0.27,0.1-0.4,0.25-0.4,0.44
			c0,0.11,0.04,0.26,0.11,0.44c0.06,0.17,0.1,0.29,0.1,0.36c0,0.11-0.08,0.3-0.25,0.56l-0.68,1.12c-0.67,1.1-1.15,1.56-2,1.94
			c-0.55,1.6-1.33,2.41-2.48,2.58c-0.92,1.85-1.73,2.5-3.36,2.68c-0.22,0.71-0.61,1.3-1.46,2.24c-0.34,0.38-0.56,0.64-0.63,0.78
			c-0.38,0.69-0.41,0.73-0.59,0.73c-0.23,0-0.74-0.33-1.12-0.73c-0.18-0.19-0.32-0.38-0.44-0.59l-0.44-0.78
			c-0.14-0.25-0.28-0.36-0.47-0.36l-0.31,0.02l-1.07,0.15c-0.67,0.09-1.63,0.64-1.94,1.12l-0.58,0.88
			c-0.06,0.09-0.15,0.15-0.24,0.15c-0.44,0-0.7-0.96-0.7-2.56c0-1.39,0.22-2.32,0.69-3l1.37-1.89c0.19-0.27,0.29-0.53,0.29-0.74
			c0-0.22-0.09-0.44-0.25-0.63c-0.29-0.34-0.57-0.55-0.78-0.58l-1.02-0.14c-0.19-0.03-0.25-0.07-0.25-0.15
			c0-0.09,0.06-0.2,0.16-0.34c0.34-0.42,0.75-0.78,1.22-1.07c1.2-0.74,2-1.02,2.81-1.02c0.82,0,1.72,0.29,2.55,0.83l1.41,0.93
			c0.2,0.13,0.43,0.2,0.68,0.2c0.65,0,1.14-0.39,1.61-1.27c0.45-0.85,0.64-1.53,0.64-2.26c0-1.83-1.31-3.15-3.12-3.15
			c-0.84,0-1.71,0.33-2.53,0.97c-0.25,0.19-0.42,0.38-0.49,0.54l-0.39,0.88c-0.09,0.21-0.23,0.34-0.35,0.34
			c-0.25,0-0.8-0.7-1.26-1.61c-0.24-0.47-0.47-1.06-0.68-1.76c-0.29-0.95-0.41-1.67-0.41-2.43l0.07-1.32
			c-0.66-1.04-0.88-1.79-0.88-3.01c0-0.44,0.07-0.78,0.35-1.71c-0.41-0.68-0.54-1.18-0.54-2.17l0.05-0.61l0.14-0.68l0.1-0.58
			c-0.47-0.62-0.61-1.02-1.07-3.16c-0.26-1.21-0.43-1.73-0.63-2.05c-0.1-0.14-0.15-0.24-0.15-0.29c0-0.29,0.68-0.54,1.45-0.54
			l0.69,0.05c-0.17-0.45-0.2-0.62-0.2-0.98c0-0.6,0.12-1.27,0.35-1.94c0.25-0.74,0.31-0.95,0.31-1.19c0-0.58-0.09-1.17-0.21-1.49
			l-0.39-0.97c-0.09-0.22-0.13-0.37-0.13-0.5c0-0.1,0.06-0.13,0.24-0.13c0.96,0,2.78,1.03,4.21,2.38c1.42,1.34,1.88,2.43,1.88,4.43
			l-0.08,1.07c1.32,1.16,1.9,2.12,1.9,3.16c0,0.76-0.25,1.27-0.98,1.99c-1.32,1.31-1.61,1.98-1.61,3.66c0,2.58,0.77,3.98,2.19,3.98
			c1.26,0,2.22-1.36,2.38-3.36l0.14-1.85c0.04-0.48,0.12-1.07,0.25-1.76c0.08-0.44,0.15-1.02,0.15-1.27c0-0.66-0.43-1.48-1.71-2.97
			c-1.37-1.6-1.82-2.45-1.82-3.7c0-1.49,1.03-2.59,2.44-2.59c0.35,0,0.53,0.05,0.95,0.27c0.02-0.85,0.06-1,0.53-2.2
			c0.38-0.94,0.78-1.6,0.97-1.6c0.06,0,0.17,0.07,0.29,0.19c0.21,0.21,0.42,0.39,0.63,0.53c0.3,0.21,0.46,0.32,0.49,0.34
			c0.11,0.08,0.25,0.23,0.44,0.44c0.3-1.09,0.61-1.61,1.51-2.49c0.68-0.67,0.93-0.88,1.07-0.88c0.1,0,0.23,0.09,0.34,0.25l0.59,0.78
			l0.82,0.93c0.31,0.35,0.43,0.65,0.58,1.51l0.49-0.29l0.78-0.44c0.14-0.08,0.34-0.21,0.59-0.39c0.13-0.1,0.24-0.15,0.31-0.15
			c0.08,0,0.17,0.14,0.23,0.35l0.29,1.12l0.63,1.26c0.19,0.38,0.25,0.67,0.25,1.25l0,0.31l0.33-0.01c0.96,0,1.78,1.13,1.78,2.45
			c0,1.73-1.38,3.97-3.18,5.16c-0.17,0.59-0.2,0.82-0.2,1.29c0,3.87,1.02,4.69,6.97,5.57c1.49,0.22,2.82,0.5,3.99,0.83
			c0.19,0.05,1.48,0.47,3.85,1.26c1.32,0.44,2.2,0.63,2.88,0.63c0.73,0,1.13-0.21,1.13-0.59c0-0.67-0.97-1.26-3.96-2.43l-4.23-1.65
			c-4.3-1.69-6.34-4.31-6.34-8.18c0-4.51,3.38-7.88,7.9-7.88c1.7,0,3.36,0.35,5.74,1.22c3.08,1.12,3.23,1.17,3.57,1.17
			c0.59,0,0.92-0.41,1.01-1.26c0.08-0.73,0.27-1.02,0.68-1.02c0.6,0,1.25,0.55,1.71,1.46c0.4,0.79,0.63,1.71,0.63,2.52
			c0,1.61-0.85,2.66-2.38,2.97c-1.03,1.35-2.33,2.01-3.92,2.01c-1.94,0-2.9-0.38-6.21-2.45c-1.19-0.74-1.69-0.93-2.56-0.93
			c-1.16,0-2.01,0.72-2.01,1.7c0,0.89,0.72,1.47,2.33,1.9c0.97,0.25,1.11,0.32,1.61,0.83c0.39-0.09,0.56-0.12,0.81-0.12
			c1.58,0,3.53,0.85,5.18,2.26c3,0.93,5.66,4.16,5.66,6.88c0,3.01-2.6,5.69-5.51,5.69C402.24,560.43,400.67,560.19,399.26,559.83"/>
		<path id="path4974" class="st3" d="M318.48,490c-0.13-0.58-0.18-0.88-0.18-1.18l0.03-0.38l0.15-0.78l0.05-0.63
			c0-0.68-0.12-1.16-0.34-1.46l-0.58-0.78c-0.19-0.26-0.36-0.57-0.49-0.93c-0.06-0.18-0.1-0.32-0.1-0.41c0-0.22,0.13-0.36,0.35-0.36
			c0.13,0,0.19,0.02,0.63,0.28c0.19,0.11,0.35,0.17,0.48,0.17c0.29,0,0.45-0.47,0.45-1.3c0-0.94-0.09-1.46-0.29-1.69l-0.73-0.83
			l-0.63-0.54c-0.15-0.13-0.25-0.3-0.25-0.43c0-0.21,0.16-0.35,0.39-0.35c0.22,0,0.69,0.11,1.08,0.25l0.22,0.05
			c0.2,0,0.28-0.12,0.28-0.41l-0.01-0.18l-0.14-1.02l-0.29-1.07c-0.1-0.34-0.15-0.4-0.37-0.4l-0.13,0.01l-1.21,0.25l-0.19,0.02
			c-1.59,0-3.28-1.35-3.8-3.04l-0.97-3.16c-0.3-0.98-1.03-1.9-2.33-2.97c-0.4-0.32-0.74-0.51-0.97-0.53l-0.88-0.1
			c-0.16-0.01-0.26-0.11-0.26-0.24c0-0.2,0.19-0.29,0.61-0.29l1.6,0.14c0.58,0.06,1.47,0.28,2.63,0.69c1.45,0.5,2.44,0.71,3.26,0.71
			c2.43,0,3.89-1.32,3.89-3.52c0-1.51-0.79-3.21-2-4.3c-0.68-0.62-1.37-1.07-1.61-1.07c-0.13,0-0.25,0.11-0.25,0.25l0.05,0.63
			l0,0.06c0,0.25-0.14,0.43-0.33,0.43c-0.25,0-0.52-0.32-0.84-0.97c-0.93-1.91-2.38-3.06-3.89-3.06c-0.25,0-0.44,0.11-0.44,0.26
			c0,0.1,0.08,0.34,0.25,0.7l0.39,0.88c0.1,0.23,0.16,0.38,0.16,0.45c0,0.06-0.09,0.11-0.21,0.11c-0.22,0-0.58-0.2-0.82-0.45
			l-0.73-0.78l-0.63-0.97c-0.51-0.78-0.92-1.13-2-1.7c-0.6-0.32-1-0.53-1.17-0.63c-0.22-0.13-0.43-0.2-0.61-0.2
			c-0.17,0-0.26,0.09-0.26,0.25c0,0.16,0.06,0.34,0.19,0.53c0.36,0.56,0.5,0.83,0.5,0.97c0,0.16-0.12,0.29-0.25,0.29
			c-0.38,0-1.17-0.76-1.86-1.8c-0.57-0.86-0.88-1.81-0.88-2.73c0-2.09,1.53-3.64,3.59-3.64c1.07,0,2.42,0.45,3.66,1.22l2.29,1.41
			c0.8,0.49,1.97,0.88,2.66,0.88c0.31,0,0.95-0.11,1.43-0.25c0.21-0.06,0.41-0.14,0.58-0.24c0.14-0.08,0.23-0.19,0.23-0.27
			c0-0.1-0.06-0.19-0.13-0.21l-0.29-0.1l-1.07-0.2c-0.28-0.05-0.72-0.21-1.32-0.49c-1.28-0.59-2.1-0.99-2.43-1.21
			c-0.8-0.52-1.34-0.83-1.61-0.92c-0.39-0.13-0.64-0.31-0.64-0.46c0-0.14,0.08-0.22,0.22-0.22c0.14,0,0.32,0.07,0.52,0.19
			c0.71,0.45,1.34,0.68,1.8,0.68l2.09,0.73c1.04,0.36,2.55,0.68,3.23,0.68c0.88,0,1.6-0.72,1.6-1.61c0-0.57-0.34-1.43-0.85-2.14
			c-0.11-0.16-0.23-0.25-0.33-0.25c-0.19,0-0.3,0.13-0.3,0.39l0.05,0.39l0.08,0.58c0,0.63-0.43,1.13-0.97,1.13
			c-0.19,0-0.45-0.05-0.76-0.15l-3.16-1.02c-2.65-0.86-3.88-1.12-5.2-1.12c-3.79,0-6.67,2.6-6.67,6.02c0,3.88,2.72,6.37,9.44,8.68
			c6.62,2.27,7.54,2.82,7.54,4.52c0,0.98-0.99,1.85-2.09,1.85c-0.45,0-0.84-0.04-1.17-0.1c-0.22-0.05-1.33-0.31-3.31-0.78
			c-2-0.48-3.82-0.69-6.06-0.69c-4.77,0-7.42,0.84-9.71,3.07c-0.57,0.56-0.76,0.64-1.43,0.64l-0.32-0.01l-0.68-0.05l-0.09,0
			c-0.57,0-0.99,0.27-1.37,0.88c-0.51,0.82-0.79,1.26-0.83,1.31c-0.13,0.19-0.34,0.29-0.56,0.29c-0.44,0-0.7-0.33-1.19-1.5
			c-0.24-0.57-0.59-1.07-1.02-1.46l-0.98-0.88c-0.15-0.14-0.25-0.28-0.25-0.38c0-0.11,0.07-0.26,0.2-0.45
			c0.46-0.68,0.63-0.98,0.68-1.27c0.13-0.65,0.15-0.68,0.42-0.68c0.3,0,0.38,0.3,0.41,1.41c0,0.32,0.14,0.77,0.39,1.32l0.54,1.17
			c0.06,0.15,0.24,0.25,0.44,0.25c0.5,0,1.14-1.18,1.32-2.44c0.14-1.05,0.25-1.36,0.47-1.36c0.09,0,0.17,0.04,0.21,0.1
			c0.05,0.07,0.19,0.37,0.44,0.88c0.13,0.27,0.34,0.52,0.63,0.73c0.28,0.21,0.48,0.32,0.58,0.34l0.06,0c0.39,0,0.53-0.26,0.62-1.18
			l0.05-0.49l-0.1-0.68l-0.07-0.47c0-0.31,0.11-0.5,0.29-0.5c0.11,0,0.24,0.07,0.37,0.2l0.49,0.49c0.32,0.32,0.65,0.49,0.96,0.49
			c0.4,0,0.65-0.17,0.65-0.43c0-0.23-0.09-0.47-0.45-1.13l-0.34-0.63c-0.39-0.73-0.7-1.02-1.07-1.02l-0.49,0.05l-0.58,0.24
			c-0.18,0.07-0.31,0.11-0.38,0.11c-0.09,0-0.16-0.08-0.16-0.19c0-0.44,0.29-1.12,0.83-1.98c0.39-0.62,0.65-1.93,0.78-3.82
			c0.17-2.54,0.51-4.19,0.87-4.19c0.24,0,0.33,0.2,0.33,0.75l-0.02,0.67l-0.02,0.47c0,0.45,0.1,0.82,0.22,0.82
			c0.42,0,0.91-0.62,1.31-1.63c0.17-0.42,0.25-0.75,0.25-0.99l-0.05-0.23l-0.98-1.8l-0.97-0.29c-0.18-0.05-0.3-0.13-0.34-0.21v-0.66
			v-0.54l-0.1-0.58l-0.19-0.49l-0.24-0.54c-1.07,0.58-1.57,0.96-1.94,1.46c-0.38,0.5-0.6,0.7-0.79,0.7c-0.13,0-0.23-0.12-0.23-0.25
			c0-0.12,0.05-0.38,0.14-0.79l0.03-0.28c0-1.04-0.63-2.07-1.69-2.74l-0.29,0.39l-0.34,0.48l-0.58,0.69
			c-0.19,0.21-0.35,0.55-0.49,0.97c-0.06,0.2-0.1,0.39-0.1,0.55l0,0.08l0,0.18c0,0.4-0.04,0.5-0.22,0.5l-0.12-0.05l-0.34-0.49
			l-0.54-0.58l-0.82-0.54l-0.44-0.34c-0.08,0.19-0.15,0.34-0.19,0.44c-0.15,0.34-0.23,0.6-0.24,0.78l-0.05,0.78l-0.05,0.82l0,0.14
			c0,0.43-0.1,0.6-0.36,0.6c-0.09,0-0.33-0.11-0.57-0.25c-0.21-0.13-0.46-0.2-0.71-0.2c-0.75,0-1.24,0.52-1.24,1.34
			c0,0.97,0.28,1.9,0.78,2.55l0.63,0.83c0.18,0.22,0.5,0.41,0.51,0.29l0.12-1.02l-0.15-0.83l-0.03-0.37c0-0.31,0.11-0.5,0.29-0.5
			c0.28,0,0.44,0.3,0.62,1.12l0.38,1.8l0.39,2.29c0.1,0.62,0.3,1.27,0.58,1.94c0.38,0.92,0.66,1.5,0.82,1.71
			c0.54,0.69,0.6,0.79,0.6,0.94c0,0.12-0.1,0.23-0.21,0.23c-0.11,0-0.25-0.05-0.44-0.15c-0.17-0.08-0.37-0.15-0.58-0.19l-0.38-0.06
			c-0.78,0-0.94,0.67-0.94,3.92c0,1.98,0.42,4.67,0.94,5.96l1.02,2.58c0.16,0.41,0.25,0.82,0.25,1.21c0,3.55-4.71,9.12-9.88,11.69
			c-1.92,0.95-2.54,1.87-2.68,3.99l-0.05,0.63c0.78-0.4,1.11-0.54,1.66-0.68c1.45-0.38,1.73-0.56,1.94-1.26l0.19-0.63
			c0.07-0.24,0.19-0.32,1.32-0.92c0.38-0.21,0.65-0.43,0.78-0.63c0.25-0.41,0.45-0.63,0.58-0.63c0.12,0,0.19,0.06,0.19,0.16
			l-0.04,0.18l-0.49,1.39l-0.06,0.34c0,1.03,0.56,1.87,1.61,2.41c0.18-1.13,0.29-1.51,0.64-2.04l0.87-1.36
			c0.33-0.51,0.46-1.13,0.46-2.09c0-0.54-0.05-1.1-0.12-1.51l-0.04-0.39c0-0.25,0.13-0.39,0.35-0.39c0.17,0,0.3,0.06,0.32,0.14
			l0.19,0.93c0.04,0.2,0.24,0.34,0.47,0.34c0.47,0,1.08-0.61,1.72-1.7c0.24-0.41,0.36-0.85,0.36-1.29l-0.07-0.66l-0.15-0.73
			l-0.01-0.14c0-0.31,0.18-0.54,0.44-0.54c0.11,0,0.19,0.04,0.21,0.1l0.29,1.12c0.1,0.38,0.36,0.63,0.63,0.63
			c0.32,0,0.89-0.56,1.22-1.21c0.29-0.58,0.44-1.24,0.44-2c0-1.04,0.11-1.33,0.49-1.33c0.12,0,0.22,0.05,0.24,0.12l0.19,0.63
			c0.07,0.23,0.21,0.39,0.35,0.39c0.2,0,0.75-0.59,1.12-1.21c0.1-0.17,0.14-0.32,0.14-0.45c0-0.21-0.13-0.42-0.44-0.67
			c-0.5-0.42-0.54-0.49-0.54-1.13c0-0.61,0.1-0.93,0.54-1.7c0.24-0.41,0.45-0.8,0.63-1.17c0.62-1.2,0.83-1.51,1.06-1.51
			c0.19,0,0.36,0.2,0.36,0.43c0,0.13-0.03,0.26-0.1,0.4c-0.13,0.27-0.2,0.47-0.2,0.58c0,0.19,0.16,0.35,0.36,0.35
			c0.23,0,0.52-0.1,0.86-0.29c0.13-0.08,0.58-0.25,1.36-0.54l1.61-0.58c0.26-0.1,0.59-0.14,0.97-0.14c0.3,0,0.59,0.03,0.88,0.09
			c0.57,0.13,0.94,0.2,1.12,0.2c0.44,0,0.83-0.38,0.83-0.81c0-0.32-0.33-0.96-0.78-1.48c-0.17-0.19-0.25-0.34-0.25-0.44l0.06-0.19
			c0.06-0.12,0.17-0.19,0.26-0.19c0.33,0,1.1,0.82,1.78,1.9c4.19,6.6,5.7,8.2,8.52,9.05c2.87,0.87,3.61,1.54,3.61,3.25
			c0,0.93-0.47,2.01-1.51,3.47c-2.12,2.97-2.63,4.16-2.63,6.12l0,0.36c0.24-0.1,0.42-0.18,0.53-0.24c0.4-0.2,0.66-0.32,0.78-0.34
			l1.21-0.25c0.37-0.07,0.69-0.54,0.69-0.99l-0.01-0.13l-0.14-1.07l-0.01-0.14c0-0.38,0.19-0.82,0.44-1.02
			c0.08-0.06,0.17-0.1,0.25-0.1c0.14,0,0.3,0.13,0.38,0.3l0.78,1.65C317.09,489.22,317.47,489.54,318.48,490"/>
		<path id="path4978" class="st3" d="M279.24,454.72c-0.36,0-0.54,0.31-0.57,0.97l-0.1,0.93c-0.11,0.86-0.12,0.95-0.12,1.18
			c0,0.69,0.21,1.21,0.49,1.21c0.31,0,0.8-0.59,1.04-1.27c0.15-0.41,0.22-0.76,0.22-1.13c0-0.32-0.08-0.71-0.22-1.1
			C279.81,455,279.54,454.72,279.24,454.72"/>
		<path id="path4982" class="st3" d="M274.78,447.13l0,0.42c0,0.6-0.14,1.32-0.64,3.18c-0.09,0.34-0.14,0.68-0.14,0.88
			c0,0.32,0.12,0.68,0.39,1.11c0.16,0.25,0.31,0.43,0.44,0.49l0.58,0.29l0.09,0.69c-0.02,0.26,0.03,0.63,0.15,1.07
			c0.13,0.48,0.2,0.97,0.2,1.45c0,0.41-0.03,0.57-0.13,0.57c-0.18,0-0.5-0.5-0.81-1.25c-0.47-1.18-0.88-1.61-1.55-1.61
			c-0.53,0-0.88,0.09-1.51,0.39c0.15,0.19,0.25,0.32,0.3,0.39c0.03,0.06,0.18,0.34,0.44,0.83l0.69,1.32
			c0.47,0.91,0.75,1.43,0.82,1.56c0.18,0.28,0.41,0.51,0.68,0.68c0.08,0.05,0.35,0.19,0.78,0.44c0.24,0.13,0.4,0.31,0.4,0.45
			c0,0.22-0.18,0.38-0.42,0.38h-0.03l-0.63-0.1l-0.36-0.04c-0.19,0-0.28,0.18-0.28,0.54c0,1.32,1.05,2.84,2.87,4.17
			c0.22,0.16,0.39,0.39,0.39,0.52c0,0.16-0.17,0.31-0.36,0.31c-0.12,0-0.4-0.09-0.62-0.19c-0.14-0.07-0.25-0.1-0.34-0.1
			c-0.24,0-0.4,0.19-0.4,0.5c0,0.34,0.28,1.03,0.88,2.19c0.39,0.75,0.98,1.32,1.65,1.6l2.19,0.93c0.12,0.05,0.19,0.17,0.19,0.29
			c0,0.18-0.13,0.32-0.29,0.34l-0.44,0.05l-0.39,0.05l-0.63-0.05h-0.1c-0.3,0-0.43,0.06-0.43,0.21c0,0.25,0.27,0.85,0.72,1.59
			c0.52,0.87,0.97,1.37,1.25,1.37c0.12,0,0.23-0.1,0.3-0.25l0.54-1.12c0.09-0.19,0.53-0.53,1.26-0.97c0.47-0.28,0.93-0.46,1.36-0.54
			l0.88-0.14c0.23-0.04,0.35-0.2,0.35-0.46l-0.01-0.12l-0.14-0.93l-0.1-1.02l-0.1-0.92l-0.1-1.07c-0.01-0.28-0.09-0.4-0.24-0.4
			c-0.12,0-0.31,0.16-0.44,0.35c-0.76,1.17-1.3,1.56-2.11,1.56c-2.59,0-4.56-4.57-4.56-10.6c0-0.52,0.03-1.19,0.1-2
			c0.13-1.55,0.14-1.94,0.14-2.51c0-2.62-0.55-4.46-1.65-5.57l-0.69-0.68L274.78,447.13"/>
		<path id="path4986" class="st3" d="M281.06,482.7c-0.68-0.1-1-0.18-1.41-0.34c-0.12-0.05-0.42-0.18-0.93-0.39
			c-0.78-0.34-1.37-0.49-1.86-0.49c-0.73,0-1.33,0.25-2.03,0.83l0.44,0.34l0.97,0.69l0.92,0.73c0.24,0.19,0.52,0.29,0.81,0.29
			C278.92,484.36,279.74,483.91,281.06,482.7"/>
		<path id="path4990" class="st3" d="M299.79,491.56c0.27-0.6,0.39-0.77,0.97-1.26c1.36-1.17,2-2.03,2-2.73v-0.49v-0.58
			c0-0.63,0.11-0.83,0.43-0.83c0.14,0,0.26,0.06,0.3,0.15l0.24,0.58c0.06,0.13,0.22,0.22,0.41,0.22s0.47-0.22,0.71-0.56l0.49-0.68
			c0.25-0.34,0.35-0.63,0.35-0.95c0-0.19-0.04-0.38-0.11-0.56c-0.04-0.09-0.15-0.35-0.34-0.78c-0.11-0.25-0.2-0.58-0.2-0.76
			c0-0.32,0.16-0.5,0.44-0.5c0.14,0,0.27,0.06,0.35,0.15l0.39,0.49c0.09,0.11,0.22,0.17,0.37,0.17c0.18,0,0.38-0.17,0.5-0.41
			l0.39-0.78c0.1-0.2,0.15-0.35,0.15-0.44c0-0.15-0.16-0.31-0.44-0.44l-0.63-0.29c-0.83-0.38-1.46-1.72-1.46-3.12
			c0-0.19,0.03-0.37,0.1-0.53l0.34-0.83c0.1-0.24,0.15-0.5,0.15-0.78c0-0.5-0.17-1.01-0.49-1.51c-0.39-0.6-0.6-0.94-0.63-1.02
			c-0.29-0.77-0.44-0.99-0.68-0.99l-0.25,0.06l-0.34,0.19l-0.54,0.29l-0.63,0.78l-0.69,0.34c-0.41,0.21-0.79,1.07-0.79,1.79
			c0,1.26,0.14,1.61,1.82,4.49c0.65,1.11,0.99,2.07,0.99,2.78c0,2-1.78,3.42-5.37,4.27l-2.24,0.54c-1.65,0.39-2.62,1.53-2.97,3.45
			c0.68-0.35,0.95-0.4,2.15-0.4l0.72,0.01h0.11c0.65,0,0.74-0.05,1.15-0.63c0.48-0.67,0.95-1.07,1.61-1.36l0.78-0.34l0.63-0.34
			l0.19-0.05c0.18,0,0.27,0.07,0.27,0.2c0,0.19-0.18,0.51-0.46,0.82c-0.56,0.63-0.78,1.15-0.78,1.88
			C299.25,490.75,299.37,491.03,299.79,491.56"/>
		<path id="path4994" class="st3" d="M293.66,484.02c0.56,0.35,1.13,0.86,1.46,1.32c0.47,0.63,0.53,0.69,0.99,0.69
			c0.19,0,0.44-0.04,0.71-0.1l0.44-0.1c0.8-0.15,1.07-0.27,1.07-0.47c0-0.12-0.09-0.26-0.25-0.4l-0.54-0.49l-0.53-0.49
			c-0.34-0.31-1.02-0.55-1.6-0.55C294.83,483.42,294.49,483.54,293.66,484.02"/>
		<path id="path4998" class="st3" d="M309.43,486.65l0.29-0.05l0.44-0.06l0.44,0.06l0.22,0.01c1.08,0,2.12-0.92,2.12-1.88
			c0-0.33-0.31-0.52-0.86-0.52C310.76,484.21,309.94,484.96,309.43,486.65"/>
		<path id="path5002" class="st3" d="M409.28,490c-0.12-0.44-0.15-0.66-0.15-0.89l0.06-0.66c0.12-0.91,0.16-1.35,0.16-1.89
			c0-0.36-0.11-0.65-0.35-0.98l-0.58-0.78c-0.38-0.51-0.54-0.89-0.54-1.33c0-0.28,0.07-0.38,0.26-0.38l0.22,0.05
			c0.03,0.01,0.17,0.1,0.44,0.25c0.19,0.11,0.36,0.17,0.48,0.17c0.3,0,0.44-0.45,0.44-1.37c0-1.26-0.24-1.87-0.97-2.45l-0.68-0.54
			c-0.12-0.09-0.2-0.25-0.2-0.4c0-0.23,0.14-0.38,0.36-0.38c0.13,0,0.32,0.04,0.57,0.1l0.53,0.15l0.21,0.05
			c0.17,0,0.24-0.13,0.24-0.41l-0.01-0.17l-0.14-1.02c-0.15-1.07-0.33-1.47-0.64-1.47l-0.09,0.01l-1.26,0.25l-0.21,0.02
			c-1.52,0-3.31-1.44-3.78-3.04l-0.93-3.16c-0.27-0.94-1.1-1.99-2.33-2.97c-0.41-0.32-0.76-0.5-1.02-0.53l-0.88-0.1
			c-0.16-0.01-0.26-0.12-0.26-0.24c0-0.2,0.17-0.3,0.53-0.3c1.23,0,2.55,0.25,4.31,0.83c1.6,0.52,2.47,0.71,3.25,0.71
			c2.44,0,3.9-1.27,3.9-3.38c0-1.06-0.38-2.38-0.93-3.23c-0.47-0.73-1.27-1.48-2.29-2.14c-0.15-0.1-0.29-0.15-0.38-0.15
			c-0.14,0-0.25,0.11-0.25,0.25l0.05,0.63l0,0.06c0,0.24-0.14,0.43-0.31,0.43c-0.27,0-0.55-0.31-0.86-0.97
			c-0.9-1.9-2.34-3.05-3.83-3.05c-0.33,0-0.51,0.11-0.51,0.31c0,0.15,0.09,0.38,0.25,0.64c0.15,0.25,0.3,0.54,0.44,0.88
			c0.07,0.19,0.12,0.33,0.12,0.42c0,0.09-0.08,0.14-0.22,0.14c-0.22,0-0.58-0.2-0.82-0.45c-0.49-0.52-0.73-0.78-0.73-0.78
			l-0.63-0.97c-0.49-0.75-1.03-1.23-1.95-1.7l-1.21-0.63c-0.25-0.13-0.46-0.2-0.63-0.2c-0.15,0-0.23,0.08-0.23,0.22
			c0,0.15,0.08,0.35,0.22,0.56c0.26,0.38,0.45,0.79,0.45,0.97c0,0.17-0.11,0.3-0.24,0.3c-0.34,0-0.95-0.61-1.82-1.8
			c-0.61-0.85-0.93-1.77-0.93-2.73c0-2.05,1.58-3.64,3.61-3.64c1.04,0,2.35,0.44,3.64,1.22l2.34,1.41c0.83,0.5,1.97,0.88,2.67,0.88
			c0.39,0,0.5-0.02,1.37-0.25c0.25-0.06,0.47-0.14,0.63-0.24c0.1-0.06,0.18-0.18,0.18-0.28c0-0.19-0.12-0.28-0.42-0.3
			c-1.08-0.08-3.33-0.97-4.82-1.9c-0.87-0.54-1.4-0.85-1.61-0.92c-0.4-0.14-0.67-0.35-0.67-0.52c0-0.07,0.08-0.11,0.21-0.11
			l0.29,0.05l2.12,0.77l2.04,0.73c1,0.36,2.56,0.68,3.27,0.68c0.92,0,1.56-0.64,1.56-1.56c0-0.47-0.12-0.99-0.31-1.36
			c-0.3-0.58-0.69-1.07-0.85-1.07c-0.19,0-0.3,0.19-0.3,0.52l0.02,0.26l0.06,0.63c0,0.65-0.36,1.08-0.92,1.08
			c-0.22,0-0.49-0.05-0.8-0.15l-3.16-1.02c-2.75-0.88-3.82-1.12-5.17-1.12c-3.83,0-6.71,2.58-6.71,6.02c0,3.88,2.66,6.31,9.49,8.68
			c6.63,2.3,7.49,2.82,7.49,4.57c0,1-0.94,1.81-2.12,1.81c-0.44,0-0.82-0.04-1.14-0.1c-0.29-0.06-1.39-0.32-3.31-0.78
			c-2.03-0.49-3.76-0.69-6.06-0.69c-4.83,0-7.15,0.74-9.66,3.07c-0.58,0.54-0.82,0.64-1.47,0.64l-0.33-0.01l-0.76-0.05
			c-0.58,0-1.02,0.28-1.38,0.88l-0.78,1.31c-0.11,0.19-0.32,0.29-0.56,0.29c-0.5,0-0.77-0.33-1.24-1.51
			c-0.25-0.63-0.58-1.13-0.97-1.46l-1.02-0.88c-0.15-0.13-0.24-0.26-0.24-0.36c0-0.1,0.08-0.26,0.24-0.47
			c0.15-0.2,0.3-0.43,0.44-0.68c0.15-0.27,0.23-0.47,0.24-0.59l0.05-0.44c0.04-0.14,0.18-0.25,0.35-0.25c0.32,0,0.38,0.22,0.38,1.41
			c0,0.31,0.13,0.75,0.38,1.32l0.54,1.17c0.07,0.15,0.24,0.25,0.44,0.25c0.5,0,1.14-1.19,1.32-2.44c0.14-1.04,0.25-1.36,0.46-1.36
			c0.2,0,0.29,0.12,0.7,0.97c0.13,0.26,0.32,0.51,0.58,0.73c0.24,0.2,0.44,0.32,0.58,0.34h0.05c0.4,0,0.54-0.25,0.63-1.17l0.05-0.49
			l-0.09-0.68l-0.07-0.47c0-0.31,0.11-0.5,0.29-0.5c0.1,0,0.24,0.07,0.36,0.2l0.49,0.49c0.32,0.32,0.65,0.49,0.98,0.49
			c0.42,0,0.68-0.19,0.68-0.48c0-0.25-0.05-0.36-0.49-1.08c-0.04-0.06-0.15-0.27-0.34-0.63c-0.43-0.82-0.63-1.02-1.01-1.02
			l-0.5,0.05l-0.63,0.24c-0.19,0.07-0.32,0.11-0.39,0.11c-0.08,0-0.15-0.09-0.15-0.19c0-0.44,0.29-1.13,0.83-1.98
			c0.33-0.53,0.62-1.83,0.83-3.82l0.24-2.29c0.15-1.4,0.31-1.9,0.59-1.9c0.1,0,0.18,0.04,0.19,0.1l0.15,0.73v0.58
			c0,0.71,0.07,1.29,0.17,1.29c0.21,0,0.5-0.25,0.81-0.66c0.21-0.29,0.38-0.62,0.49-0.97c0.16-0.52,0.25-0.95,0.25-1.27
			c0-1.13-0.47-1.61-2-2.04c-0.15-0.04-0.25-0.09-0.29-0.14l-0.05-0.44v-0.83l-0.1-0.58l-0.19-0.49l-0.24-0.54l-0.39,0.25
			c-1,0.62-1.24,0.81-1.56,1.22c-0.44,0.56-0.6,0.69-0.78,0.69c-0.13,0-0.24-0.09-0.24-0.21l0.19-0.83l0.01-0.14
			c0-1.07-0.6-2.1-1.67-2.88l-0.34,0.39l-0.34,0.48l-0.58,0.69c-0.34,0.39-0.54,0.94-0.54,1.44l0.01,0.16l0,0.16
			c0,0.38-0.06,0.51-0.24,0.51l-0.11-0.04l-0.39-0.49l-0.49-0.58l-0.88-0.54l-0.44-0.34c-0.47,1.02-0.49,1.13-0.49,2.44v0.41
			c0,0.44-0.14,0.7-0.38,0.7c-0.12,0-0.32-0.08-0.6-0.24c-0.22-0.13-0.48-0.2-0.72-0.2c-0.71,0-1.23,0.6-1.23,1.42
			c0,0.89,0.19,1.5,0.78,2.47c0.38,0.63,0.88,1.14,1.12,1.14c0.03,0,0.09-0.45,0.15-1.05l-0.15-0.83l-0.03-0.37
			c0-0.31,0.11-0.5,0.29-0.5c0.28,0,0.44,0.3,0.62,1.12l0.39,1.8l0.39,2.29c0.1,0.62,0.3,1.27,0.58,1.94
			c0.38,0.92,0.66,1.5,0.83,1.71c0.54,0.69,0.6,0.79,0.6,0.94c0,0.12-0.1,0.23-0.21,0.23c-0.11,0-0.25-0.05-0.44-0.15
			c-0.17-0.08-0.37-0.15-0.58-0.19l-0.36-0.06c-0.81,0-0.97,0.65-0.97,3.88c0,2.02,0.42,4.7,0.94,6.01l1.02,2.58
			c0.16,0.41,0.24,0.82,0.24,1.21c0,3.56-4.81,9.25-9.88,11.68c-1.97,0.95-2.56,1.94-2.73,4.62c0.84-0.4,1.18-0.53,1.7-0.68
			c1.44-0.4,1.74-0.6,1.94-1.26l0.19-0.63c0.09-0.27,0.27-0.41,1.27-0.92c0.38-0.19,0.64-0.42,0.78-0.63
			c0.25-0.42,0.45-0.63,0.57-0.63c0.14,0,0.22,0.09,0.22,0.25l-0.01,0.08l-0.54,1.39l-0.06,0.34c0,1.01,0.57,1.87,1.62,2.4
			c0.07-0.26,0.12-0.45,0.15-0.58c0.17-0.74,0.34-1.24,0.49-1.46l0.93-1.36c0.33-0.5,0.4-0.82,0.4-2.07l-0.06-1.53l-0.03-0.39
			c0-0.25,0.12-0.39,0.34-0.39c0.17,0,0.31,0.06,0.32,0.15l0.14,0.93c0.03,0.19,0.24,0.34,0.48,0.34c0.47,0,1.07-0.6,1.71-1.7
			c0.25-0.43,0.35-0.76,0.35-1.16c0-0.31-0.07-0.99-0.16-1.51l-0.02-0.28c0-0.25,0.14-0.4,0.37-0.4c0.12,0,0.22,0.04,0.24,0.09
			l0.34,1.12c0.12,0.38,0.38,0.63,0.64,0.63c0.75,0,1.52-1.53,1.6-3.16c0.05-1.03,0.18-1.38,0.49-1.38c0.12,0,0.21,0.05,0.24,0.12
			l0.19,0.63c0.07,0.23,0.21,0.39,0.35,0.39c0.13,0,0.37-0.21,0.68-0.58c0.17-0.21,0.31-0.42,0.44-0.63
			c0.1-0.17,0.15-0.35,0.15-0.51c0-0.25-0.05-0.31-0.44-0.61c-0.36-0.27-0.53-0.61-0.53-1.02c0-0.7,0.3-1.46,1.17-2.97
			c0.79-1.37,0.9-1.52,1.09-1.52c0.19,0,0.32,0.18,0.32,0.42c0,0.14-0.03,0.29-0.1,0.43c-0.13,0.28-0.2,0.48-0.2,0.58
			c0,0.19,0.17,0.34,0.38,0.34c0.24,0,0.54-0.1,0.88-0.29c0.21-0.12,0.65-0.3,1.32-0.54c0.9-0.32,1.46-0.52,1.65-0.58
			c0.3-0.1,0.65-0.15,1-0.15c0.28,0,0.56,0.03,0.85,0.1c0.56,0.13,0.94,0.2,1.13,0.2c0.44,0,0.78-0.34,0.78-0.77
			c0-0.19-0.13-0.56-0.3-0.84c-0.25-0.41-0.4-0.64-0.44-0.68c-0.21-0.23-0.3-0.35-0.3-0.44l0.06-0.19c0.06-0.12,0.16-0.19,0.27-0.19
			c0.38,0,1.13,0.78,1.82,1.9c3.82,6.23,5.66,8.2,8.47,9.05c2.92,0.89,3.61,1.51,3.61,3.25c0,0.92-0.49,2.04-1.52,3.46
			c-1.94,2.7-2.63,4.28-2.63,6.08l0,0.4c0.24-0.1,0.42-0.18,0.53-0.24c0.4-0.2,0.66-0.32,0.78-0.34l1.21-0.25
			c0.38-0.07,0.69-0.53,0.69-1.02l0-0.1l-0.1-1.07l0-0.17c0-0.61,0.29-1.1,0.65-1.1c0.14,0,0.3,0.13,0.38,0.3l0.78,1.65
			C407.9,489.22,408.27,489.54,409.28,490"/>
		<path id="path5006" class="st3" d="M369.38,456.62l-0.05,0.78l-0.01,0.48c0,0.79,0.13,1.13,0.42,1.13c0.32,0,0.83-0.61,1.06-1.27
			c0.14-0.41,0.25-0.99,0.25-1.32c0-0.24-0.06-0.45-0.25-0.92c-0.22-0.53-0.44-0.78-0.72-0.78
			C369.66,454.72,369.46,455.26,369.38,456.62"/>
		<path id="path5010" class="st3" d="M365.58,447.13l0,0.42c0,0.44-0.13,1.27-0.34,2.06c-0.19,0.69-0.28,1.07-0.3,1.12
			c-0.06,0.28-0.1,0.58-0.1,0.88c0,0.69,0.33,1.32,0.83,1.59l0.54,0.29l0.1,0.69c-0.02,0.26,0.02,0.63,0.14,1.07
			c0.13,0.49,0.2,0.98,0.2,1.46c0,0.4-0.04,0.56-0.13,0.56c-0.19,0-0.5-0.5-0.8-1.25c-0.47-1.18-0.89-1.61-1.55-1.61
			c-0.54,0-0.88,0.09-1.51,0.39c0.5,0.66,0.82,1.21,1.41,2.53c0.78,1.72,1.07,2.07,2.29,2.68c0.27,0.13,0.45,0.31,0.45,0.45
			c0,0.23-0.18,0.38-0.44,0.38c-0.11,0-0.42-0.05-0.69-0.1l-0.36-0.03c-0.19,0-0.27,0.17-0.27,0.56c0,1.29,1.1,2.86,2.92,4.15
			c0.25,0.18,0.39,0.36,0.39,0.5c0,0.08-0.06,0.17-0.15,0.24c-0.08,0.06-0.17,0.1-0.26,0.1c-0.1,0-0.32-0.08-0.57-0.19
			c-0.14-0.07-0.27-0.11-0.36-0.11c-0.23,0-0.38,0.23-0.38,0.57c0,0.44,0.32,1.22,0.88,2.12c0.52,0.82,1.08,1.38,1.61,1.6l2.19,0.93
			c0.12,0.05,0.19,0.16,0.19,0.28c0,0.17-0.12,0.32-0.29,0.36l-0.39,0.05l-0.44,0.05l-0.59-0.05l-0.1,0c-0.3,0-0.42,0.06-0.42,0.22
			c0,0.24,0.22,0.73,0.71,1.58c0.54,0.94,0.92,1.37,1.2,1.37c0.12,0,0.23-0.1,0.31-0.25l0.54-1.12c0.07-0.15,0.51-0.49,1.26-0.97
			c0.46-0.3,0.93-0.48,1.36-0.54c1.17-0.15,1.27-0.21,1.27-0.69c0-0.17-0.05-0.49-0.15-0.96c-0.05-0.25-0.1-0.59-0.15-1.02
			l-0.09-0.92l-0.1-1.07c-0.01-0.27-0.09-0.4-0.24-0.4c-0.1,0-0.26,0.15-0.39,0.35c-0.57,0.93-1.42,1.56-2.1,1.56
			c-2.72,0-4.57-4.33-4.57-10.7l0.05-1.91l0.15-2.29l0.03-0.81c0-1.96-0.69-3.99-1.68-4.98l-0.68-0.68L365.58,447.13"/>
		<path id="path5014" class="st3" d="M371.86,482.7c-1.02-0.18-1.18-0.22-2.33-0.73c-0.8-0.36-1.32-0.5-1.83-0.5
			c-0.77,0-1.36,0.24-2.07,0.83l0.44,0.34l0.98,0.69l0.93,0.73c0.24,0.19,0.52,0.29,0.82,0.29
			C369.74,484.36,370.54,483.93,371.86,482.7"/>
		<path id="path5018" class="st3" d="M390.6,491.56c0.27-0.6,0.39-0.77,0.97-1.26c1.36-1.17,2-2.03,2-2.73v-0.49v-0.58
			c0-0.63,0.11-0.83,0.43-0.83c0.14,0,0.26,0.06,0.3,0.15l0.24,0.58c0.06,0.13,0.22,0.22,0.41,0.22c0.35,0,0.59-0.25,1.19-1.24
			c0.25-0.42,0.36-0.69,0.36-0.96c0-0.18-0.04-0.36-0.12-0.55c-0.04-0.09-0.15-0.35-0.34-0.78c-0.11-0.25-0.2-0.58-0.2-0.76
			c0-0.32,0.16-0.5,0.44-0.5c0.14,0,0.27,0.06,0.35,0.15l0.39,0.49c0.09,0.11,0.11,0.17,0.25,0.17c0.18,0,0.5-0.17,0.62-0.41
			l0.39-0.78c0.1-0.19,0.15-0.35,0.15-0.44c0-0.16-0.15-0.33-0.39-0.43l-0.68-0.29c-0.8-0.34-1.46-1.71-1.46-3.02
			c0-0.14,0.05-0.36,0.15-0.63l0.29-0.83c0.1-0.27,0.15-0.55,0.15-0.81c0-0.48-0.15-0.93-0.49-1.48c-0.33-0.54-0.53-0.88-0.58-1.02
			c-0.28-0.72-0.45-0.97-0.69-0.97c-0.17,0-0.33,0.06-0.62,0.24l-0.49,0.29l-0.69,0.78l-0.68,0.34c-0.41,0.21-0.8,1.09-0.8,1.82
			c0,1.05,0.23,1.62,1.82,4.46c0.67,1.2,0.99,2.09,0.99,2.77c0,1.98-2.02,3.61-5.32,4.28c-3.95,0.81-4.8,1.46-5.26,3.99
			c0.68-0.35,0.95-0.4,2.15-0.4l0.72,0.01h0.11c0.65,0,0.74-0.05,1.15-0.63c0.48-0.67,0.95-1.07,1.6-1.36l0.78-0.34l0.63-0.34
			l0.19-0.05c0.18,0,0.27,0.07,0.27,0.2c0,0.17-0.16,0.45-0.47,0.82c-0.47,0.57-0.74,1.16-0.74,1.61
			C390.1,490.65,390.2,490.98,390.6,491.56"/>
		<path id="path5022" class="st3" d="M384.46,484.02c0.56,0.35,1.13,0.86,1.46,1.32c0.47,0.63,0.53,0.69,0.99,0.69
			c0.19,0,0.44-0.04,0.71-0.1l0.44-0.1c0.82-0.16,1.08-0.28,1.08-0.5c0-0.13-0.07-0.27-0.2-0.38l-0.58-0.49l-0.54-0.49
			c-0.33-0.3-1.01-0.54-1.53-0.54C385.68,483.43,385.19,483.59,384.46,484.02"/>
		<path id="path5026" class="st3" d="M400.23,486.65l0.29-0.05l0.49-0.06l0.39,0.06l0.26,0.01c0.5,0,0.75-0.06,0.95-0.21
			c0.3-0.23,0.61-0.6,0.93-1.12c0.13-0.21,0.19-0.4,0.19-0.56c0-0.33-0.31-0.52-0.83-0.52
			C401.56,484.21,400.74,484.96,400.23,486.65"/>
		<path id="path5030" class="st3" d="M313.76,589.47l0.29-0.58l0.68-0.73c0.58-0.62,0.89-1.5,0.89-2.52c0-0.5-0.09-1.04-0.25-1.57
			c-0.13-0.39-0.2-0.72-0.2-0.86c0-0.31,0.23-0.6,0.47-0.6c0.1,0,0.23,0.09,0.37,0.25l0.73,0.82c0.45,0.51,0.6,0.61,1.17,0.73
			l0.05-0.68l0.05-0.8c0-1.16-0.43-2.47-1.07-3.29c-0.39-0.5-0.56-0.8-0.56-0.97s0.13-0.34,0.26-0.34c0.05,0,0.12,0.03,0.2,0.1
			c0.47,0.35,0.71,0.49,0.84,0.49c0.24,0,0.44-0.58,0.44-1.23c0-0.92-0.38-1.98-0.99-2.72c-0.31-0.38-0.5-0.62-0.58-0.73
			c-0.06-0.09-0.1-0.19-0.1-0.28c0-0.21,0.17-0.36,0.42-0.36c0.19,0,0.3,0.05,0.6,0.25c0.14,0.09,0.27,0.14,0.37,0.14
			c0.38,0,0.52-0.54,0.52-1.98l-0.01-0.6l-0.05-0.88c-0.06-1.03-0.14-1.21-0.58-1.21h-0.39c-2.37,0-3.48-1.51-4.09-5.55
			c-0.44-2.93-1.53-5-2.87-5.45c-0.8-0.27-1.09-0.44-1.09-0.65c0-0.14,0.22-0.27,0.47-0.27c0.17,0,0.58,0.11,0.92,0.25
			c1.94,0.78,3.57,1.17,5,1.17c2.33,0,4.17-1.72,4.17-3.89c0-1.66-0.79-3.35-2.21-4.72c-0.39-0.38-0.81-0.63-1.22-0.73l-0.09-0.01
			l-0.25,0.08l0.1,0.7l0.19,0.49l0.06,0.2c0,0.11-0.1,0.19-0.23,0.19c-0.14,0-0.28-0.07-0.36-0.19l-0.88-1.32
			c-0.69-1.04-2.21-1.91-3.34-1.91c-0.4,0-0.65,0.18-0.65,0.46c0,0.14,0.13,0.38,0.3,0.57c0.25,0.28,0.44,0.62,0.44,0.78l-0.06,0.19
			c-0.05,0.11-0.12,0.19-0.19,0.19l-0.05,0c-0.24,0-0.35-0.11-1.41-1.32c-0.87-0.99-2.64-1.95-3.59-1.95
			c-0.13,0-0.26,0.06-0.36,0.15c-0.06,0.06-0.1,0.13-0.1,0.19c0,0.15,0.13,0.34,0.34,0.55c0.31,0.27,0.54,0.6,0.54,0.74
			c0,0.1-0.13,0.19-0.27,0.19c-0.28,0-0.9-0.4-2.07-1.32c-1.82-1.43-2.63-2.77-2.63-4.33c0-1.88,1.35-3.36,3.07-3.36
			c1.01,0,2.35,0.48,3.26,1.17l2.38,1.8c1.09,0.82,2.43,1.26,3.83,1.26c0.31,0,0.6-0.06,0.84-0.19c0.21-0.11,0.34-0.24,0.34-0.32
			c0-0.06-0.18-0.15-0.44-0.21c-0.86-0.2-1.56-0.5-2.04-0.88l-2.43-1.85c-0.9-0.69-1.54-1.13-1.9-1.32
			c-1.29-0.67-1.54-0.83-1.54-0.98c0-0.07,0.13-0.13,0.28-0.13c0.13,0,0.27,0.03,0.43,0.1l1.26,0.54c0.41,0.17,1.09,0.57,2.05,1.21
			c2.6,1.74,3.93,2.3,5.46,2.3c1.46,0,2.53-1.04,2.53-2.44c0-0.27-0.07-0.58-0.2-0.84l-0.25-0.49c-0.08-0.18-0.24-0.31-0.29-0.25
			l-0.14,0.2l-0.15,1.02c0,0.04-0.06,0.16-0.15,0.34c-0.09,0.19-0.21,0.36-0.34,0.48c-0.26,0.26-0.49,0.35-0.89,0.35
			c-0.75,0-1.6-0.4-3.88-1.86c-2.31-1.47-4.39-2.23-6.03-2.23c-3.5,0-6.33,2.82-6.33,6.31c0,4.88,2.97,7.08,12.31,9.11
			c3.55,0.77,5.11,1.81,5.11,3.39c0,1.44-1.16,2.35-3.01,2.35c-0.56,0-1-0.03-1.32-0.1c-0.31-0.06-1.99-0.52-5.01-1.37
			c-2.09-0.58-4.43-0.91-6.5-0.91c-3.66,0-6.13,1.09-7.81,3.44c-0.2,0.28-0.39,0.44-0.52,0.44c-0.1,0-0.25-0.07-0.4-0.19l-0.69-0.54
			c-0.48-0.38-1.24-0.67-1.75-0.67c-0.37,0-0.72,0.14-1.03,0.43c-0.25,0.22-0.42,0.34-0.5,0.34c-0.27,0-0.77-0.61-1.16-1.41
			c-0.54-1.14-0.83-2.27-0.83-3.31c0-0.49,0.15-0.82,0.37-0.82c0.17,0,0.3,0.13,0.37,0.39l0.39,1.41c0.22,0.79,0.66,1.41,1,1.41
			c0.15,0,0.41-0.22,0.71-0.59c0.18-0.22,0.31-0.45,0.39-0.68c0.3-0.89,0.38-1.02,0.62-1.02c0.29,0,0.43,0.17,0.62,1.07
			c0.04,0.16,0.09,0.41,0.31,0.83c0.2,0.37,0.4,0.66,0.58,0.88c0.15,0.16,0.33,0.25,0.5,0.25c0.43,0,0.82-0.72,0.82-1.5l-0.01-0.21
			l-0.06-0.9c0-0.35,0.05-0.46,0.25-0.46c0.12,0,0.2,0.06,0.34,0.24c0.21,0.26,0.49,0.5,0.82,0.68c0.3,0.16,0.54,0.24,0.69,0.24
			c0.14,0,0.31-0.09,0.47-0.24c0.13-0.13,0.2-0.26,0.2-0.38c0-0.14-0.17-0.37-0.69-0.88c-0.28-0.28-0.61-0.94-0.97-1.94
			c-0.13-0.38-0.32-0.63-0.46-0.63c-0.04,0-0.15,0.03-0.32,0.1l-0.63,0.24l-0.44,0.19l-0.17,0.04c-0.21,0-0.38-0.15-0.38-0.34
			c0-0.19,0.44-0.71,0.98-1.16c0.38-0.32,0.61-0.8,0.63-1.32c0.03-0.82,0.18-1.46,0.34-1.46l0.14-1.7c0.07-0.86,0.42-2.46,0.73-3.35
			c0.06-0.18,0.13-0.3,0.19-0.3c0.14,0,0.25,0.36,0.25,0.77l-0.01,0.25l-0.03,0.5c0,0.62,0.1,0.94,0.29,0.94
			c0.21,0,0.45-0.31,0.66-0.85l0.44-1.12c0.13-0.33,0.19-0.64,0.19-0.91c0-0.95-0.57-1.63-1.35-1.63l-0.35,0.06
			c-0.19,0.06-0.31,0.1-0.35,0.1c-0.26,0-0.47-0.28-0.47-0.61l0.04-0.7l-0.05-0.98l-0.19-1.02l-0.05-0.49l-0.44,0.24l-0.54,0.44
			l-0.78,0.63l-0.63,0.54c-0.11,0.09-0.24,0.15-0.36,0.15c-0.37,0-0.42-0.1-0.42-0.86l0-0.19c0-0.61-0.27-1.09-1.27-2.26
			c-0.05-0.07-0.13-0.16-0.24-0.29l-0.19,0.34l-0.54,0.88l-0.53,1.37l-0.1,0.88c-0.03,0.25-0.12,0.44-0.22,0.44
			c-0.1,0-0.26-0.13-0.45-0.35c-0.75-0.85-0.98-1.01-2.09-1.41l-0.1,0.34c-0.18,0.57-0.27,0.91-0.29,1.02l-0.05,0.92l0,0.39l0,0.31
			c0,0.26-0.1,0.43-0.26,0.43l-0.03,0c-0.02-0.01-0.12-0.09-0.29-0.25c-0.11-0.1-0.32-0.15-0.59-0.15c-0.91,0-1.49,0.49-1.49,1.27
			c0,0.58,0.2,1.01,1.1,2.38c0.39,0.61,0.85,1.08,1.04,1.08c0.12,0,0.22-0.32,0.22-0.69l-0.09-0.58c-0.09-0.28-0.14-0.53-0.14-0.75
			c0-0.27,0.08-0.42,0.23-0.42c0.44,0,0.89,1.26,1.08,3.02l0.19,1.8c0.07,0.64,0.27,1.3,0.58,1.94c0.44,0.91,0.88,1.53,1.27,1.8
			c0.46,0.33,0.75,0.65,0.75,0.83c0,0.15-0.13,0.29-0.25,0.29c-0.02,0-0.35-0.12-0.99-0.34l-0.41-0.06c-0.97,0-1.3,0.56-1.3,2.23
			c0,2.02,1.36,4.94,2.88,6.15l2.24,1.8c1.13,0.91,2,2.43,2,3.51c0,1.42-1.56,2.82-4.23,3.79l-1.61,0.58
			c-1.25,0.45-1.75,1.26-2.24,3.6c0.64-0.2,0.92-0.25,1.34-0.25l0.22,0l0.73,0.02c0.65,0,1.12-0.39,1.12-0.94v-0.44
			c0-0.13,0.18-0.31,0.44-0.44c0.44-0.21,0.66-0.32,0.68-0.34l0.53-0.44c0.09-0.06,0.19-0.11,0.27-0.11c0.15,0,0.26,0.14,0.26,0.3
			c0,0.12-0.03,0.27-0.1,0.44c-0.17,0.43-0.25,1.02-0.25,1.67c0,1.19,0.19,1.83,0.79,2.71c0.06-0.32,0.11-0.53,0.15-0.63
			c0.1-0.25,0.38-0.69,0.83-1.31c0.74-1.03,1.28-2.29,1.28-2.96l-0.01-0.2l-0.14-1.12c0-0.2,0.09-0.39,0.24-0.53
			c0.11-0.09,0.22-0.15,0.33-0.15c0.2,0,0.33,0.13,0.5,0.49c0.12,0.27,0.25,0.44,0.35,0.44c0.17,0,0.5-0.44,0.72-0.97
			c0.16-0.39,0.24-0.74,0.24-1.03c0-0.18-0.05-0.39-0.14-0.63c-0.1-0.25-0.16-0.44-0.16-0.56c0-0.13,0.04-0.19,0.2-0.32
			c0.08-0.06,0.17-0.1,0.25-0.1c0.09,0,0.19,0.04,0.29,0.1l0.44,0.29c0.15,0.1,0.28,0.15,0.39,0.15c0.2,0,0.48-0.22,0.69-0.54
			c0.42-0.65,0.69-1.19,0.69-1.38c0-0.13-0.08-0.22-0.35-0.41c-0.97-0.69-1.61-1.72-1.61-2.6c0-0.2,0.05-0.44,0.15-0.71l0.49-1.31
			c0.25-0.66,0.38-1,0.39-1.02l0.14-0.06c0.16,0,0.26,0.14,0.26,0.38c0,0.16-0.04,0.35-0.12,0.56c-0.12,0.32-0.2,0.7-0.2,0.92
			c0,0.35,0.18,0.54,0.51,0.54c0.24,0,0.52-0.06,0.82-0.19c1.47-0.64,2.64-0.98,3.34-0.98c0.66,0,1.07,0.15,1.77,0.63
			c0.19,0.13,0.34,0.2,0.45,0.2c0.08,0,0.19-0.08,0.28-0.2c0.06-0.08,0.1-0.17,0.1-0.24c0-0.18-0.1-0.4-0.29-0.63
			c-0.25-0.31-0.35-0.5-0.35-0.69c0-0.15,0.1-0.25,0.27-0.25c0.76,0,1.95,2.42,3.09,6.24c0.9,3.02,1.15,3.32,4.04,4.96
			c2.45,1.38,3.38,2.75,3.38,4.97c0,2.19-0.61,4.99-1.87,8.65c-0.4,1.16-0.57,1.95-0.57,2.6c0,0.51,0.1,1.01,0.48,2.32
			c0.18,0.63,0.29,1,0.34,1.12C313.42,588.89,313.55,589.13,313.76,589.47"/>
		<path id="path5034" class="st3" d="M302.47,582.66c0.29-0.67,0.38-0.83,0.93-1.65c0.79-1.19,1.07-1.82,1.07-2.38v-0.78
			c0-0.74,0.13-1.07,0.42-1.07c0.11,0,0.2,0.06,0.26,0.15l0.25,0.39c0.07,0.13,0.2,0.2,0.34,0.2c0.14,0,0.41-0.19,0.55-0.41
			c0.35-0.53,0.57-1.21,0.57-1.74l-0.05-0.53l-0.05-0.56c0-0.29,0.12-0.42,0.4-0.42c0.19,0,0.27,0.08,0.43,0.44
			c0.11,0.24,0.25,0.39,0.37,0.39c0.13,0,0.29-0.11,0.41-0.3l0.39-0.58l0.29-0.44l0.07-0.23c0-0.13-0.1-0.26-0.36-0.44
			c-0.9-0.65-1.3-1.65-1.36-3.46c-0.05-1.37-0.13-2.26-0.25-2.68c-0.02-0.09-0.32-0.79-0.88-2.09c-0.22-0.51-0.42-1.09-0.58-1.75
			c-0.12-0.45-0.26-0.58-0.61-0.58c-1.32,0-2.32,1.13-2.32,2.62c0,0.88,0.37,2.26,1.03,3.95c0.94,2.37,1.19,3.2,1.19,4.04
			c0,1.79-0.71,2.57-3.18,3.45c-2.79,1-4.09,2.44-4.58,5.01c0.22-0.08,0.38-0.15,0.49-0.19c0.31-0.13,0.54-0.21,0.68-0.25l0.78-0.19
			c0.67-0.17,1.2-0.55,1.31-0.93l0.19-0.68c0.05-0.16,0.14-0.27,0.3-0.34l0.44-0.19l0.44-0.19l0.1,0.19l-0.19,0.63
			c-0.06,0.21-0.1,0.59-0.1,1.13C301.64,581.26,301.85,581.89,302.47,582.66"/>
		<path id="path5038" class="st3" d="M276.33,537.64c0.06,0.27,0.1,0.45,0.1,0.55c0,0.15-0.06,0.57-0.19,1.25l-0.09,0.99
			c0,0.87,0.16,1.79,0.43,2.56c0.25,0.7,0.31,0.92,0.31,1.11l-0.02,0.2c-0.04,0.2-0.12,0.35-0.19,0.35c-0.09,0-0.27-0.11-0.5-0.3
			c-0.56-0.49-1.17-0.73-1.8-0.73c-0.2,0-0.49,0.03-0.83,0.1l0.25,0.54l0.73,1.8l1.02,1.56l1.07,0.73c0.11,0.07,0.2,0.17,0.29,0.29
			c0.1,0.13,0.15,0.25,0.15,0.32c0,0.09-0.09,0.16-0.19,0.17l-0.97,0.05c-0.15,0.01-0.27,0.1-0.27,0.21c0,0.16,0.14,0.65,0.41,1.45
			l0.49,1.41l0.83,0.78l0.88,0.63c0.26,0.18,0.41,0.39,0.41,0.55c0,0.13-0.08,0.26-0.17,0.27l-0.49,0.05
			c-0.16,0.01-0.25,0.15-0.25,0.39c0,0.37,0.34,1.02,0.98,1.9c0.75,1.02,1.28,1.36,2.14,1.36h0.73c0.35,0,0.56,0.17,0.56,0.45
			c0,0.23-0.15,0.37-0.47,0.43c-0.68,0.14-0.88,0.28-0.88,0.59c0,0.13,0.09,0.31,0.25,0.53l0.39,0.54c0.32,0.44,0.69,0.74,0.92,0.74
			c0.13,0,0.44-0.13,0.71-0.44c0.44-0.5,0.94-0.91,1.58-1.07c1.69-0.43,2.04-0.6,2.04-1c0-0.14-0.06-0.33-0.19-0.56
			c-0.54-0.96-0.73-1.59-0.73-2.38c0-0.6-0.16-1.03-0.38-1.03c-0.09,0-0.24,0.15-0.4,0.39c-0.4,0.62-1.08,1.03-1.7,1.03
			c-1.69,0-3.71-2.63-4.72-6.14c-0.24-0.81-0.36-1.73-0.36-2.63c0-0.92,0.13-1.94,0.36-2.97c0.32-1.43,0.5-2.22,0.53-2.38l0.06-0.66
			C279.17,540.4,278.06,538.85,276.33,537.64"/>
		<path id="path5042" class="st3" d="M279.84,544.41c-0.36,0.68-0.69,2.2-0.69,3.17c0,0.57,0.19,1.02,0.43,1.02
			c0.08,0,0.18-0.09,0.26-0.25l0.53-0.97c0.09-0.16,0.18-0.33,0.35-0.59c0.19-0.29,0.34-0.57,0.34-0.73
			C281.06,545.49,280.53,544.77,279.84,544.41"/>
		<path id="path5046" class="st3" d="M285.19,566.36c0.11,0.11,0.19,0.19,0.25,0.24c0.21,0.21,0.34,0.34,0.39,0.39
			c0.95,0.98,1.09,1.08,1.55,1.08c0.42,0,1.31-0.25,1.81-0.5c0.21-0.11,0.34-0.24,0.34-0.33c0-0.06-0.18-0.26-0.48-0.54l-0.54-0.49
			c-0.4-0.37-1.01-0.71-1.29-0.71C286.65,565.5,286.08,565.75,285.19,566.36"/>
		<path id="path5050" class="st3" d="M296.48,575.16c0.52,0.22,0.7,0.31,0.97,0.49c0.44,0.29,0.69,0.45,0.78,0.49
			c0.15,0.06,0.41,0.1,0.77,0.1c0.22,0,0.43-0.04,0.59-0.1l1.02-0.39l0.97-0.34c0.26-0.09,0.44-0.24,0.44-0.37
			c0-0.07-0.22-0.18-0.54-0.26c-0.22-0.05-0.46-0.13-0.73-0.24c-1.19-0.48-1.37-0.55-1.8-0.55
			C298.01,573.98,297.05,574.45,296.48,575.16"/>
		<path id="path5054" class="st3" d="M308.79,584.95c0.32-0.78,0.55-0.91,1.65-0.97c1.25-0.07,2.44-2.31,2.44-3.82
			c0-0.15-0.05-0.27-0.12-0.27c-0.06,0-0.18,0.06-0.33,0.16c-0.35,0.23-0.59,0.38-0.73,0.44l-1.41,0.63
			c-0.94,0.42-1.77,1.67-1.77,2.66C308.53,584.1,308.59,584.38,308.79,584.95"/>
		<path id="path5058" class="st3" d="M397.51,573.31l0.19-0.53l0.19-0.69c0.04-0.12,0.22-0.4,0.53-0.82
			c0.5-0.65,0.75-1.46,0.75-2.42c0-0.3-0.07-0.58-0.25-0.94c-0.1-0.19-0.15-0.35-0.15-0.45c0-0.06,0.03-0.14,0.1-0.23
			c0.06-0.08,0.13-0.13,0.19-0.15l0.03,0c0.13,0,0.34,0.14,0.5,0.34c0.2,0.25,0.39,0.39,0.5,0.39c0.22,0,0.45-0.37,0.57-0.93
			c0.06-0.29,0.1-0.45,0.1-0.49c0-0.23-0.19-0.85-0.44-1.36c-0.1-0.19-0.14-0.36-0.14-0.5c0-0.18,0.12-0.31,0.27-0.31
			c0.14,0,0.38,0.15,0.65,0.42c0.13,0.13,0.26,0.19,0.36,0.19c0.31,0,0.53-0.31,0.75-1.07c0.14-0.48,0.2-0.69,0.2-0.76
			c0-0.14-0.06-0.23-0.18-0.23l-0.17,0.02l-0.58,0.06c-0.89,0-2.14-0.61-2.73-1.32l-1.36-1.65c-0.53-0.64-1.26-1.61-1.21-1.61
			l-1.12-0.73c-0.19-0.12-0.3-0.27-0.3-0.4c0-0.18,0.19-0.3,0.46-0.3c0.26,0,1.06,0.28,2.51,0.89c1.4,0.6,3.61,1.08,4.93,1.08
			c2.33,0,4.24-1.88,4.24-4.16c0-1.25-0.56-2.41-1.93-4.02c-0.25-0.3-0.69-0.59-0.9-0.59c-0.16,0-0.27,0.12-0.27,0.28
			c0,0.14,0.05,0.32,0.15,0.56c0.06,0.15,0.1,0.31,0.1,0.44c0,0.22-0.09,0.35-0.24,0.35c-0.31,0-0.63-0.5-0.88-1.38
			c-0.32-1.09-0.95-1.73-2.44-2.48c-0.57-0.29-1.3-0.55-1.54-0.55c-0.09,0-0.16,0.09-0.16,0.22c0,0.18,0.07,0.38,0.19,0.57
			c0.21,0.33,0.35,0.65,0.39,0.93v0.05c0,0.19-0.1,0.3-0.27,0.3c-0.31,0-0.38-0.08-1.09-1.17c-0.37-0.56-1.35-1.3-2.19-1.65
			c-0.27-0.12-0.55-0.18-0.83-0.19l-0.03,0c-0.18,0-0.31,0.08-0.31,0.19c0,0.04,0.07,0.19,0.22,0.44l0.07,0.28
			c0,0.15-0.1,0.26-0.23,0.26c-0.29,0-1.2-0.74-1.91-1.56c-0.77-0.89-1.26-2.02-1.26-2.91c0-1.86,1.77-3.51,3.77-3.51
			c0.5,0,0.92,0.09,1.24,0.25l1.7,0.88l2,1.32c1.15,0.75,2.72,1.32,3.68,1.32c0.35,0,0.62-0.05,1.53-0.3
			c0.47-0.13,0.77-0.32,0.77-0.5l-0.02-0.04l-0.17-0.1l-1.07-0.09c-0.59-0.06-1.94-0.67-3.01-1.37l-2.24-1.46l-1.99-0.83
			c-0.15-0.06-0.25-0.16-0.25-0.25c0-0.1,0.1-0.19,0.22-0.19c0,0,0.19,0.04,0.56,0.1l1.85,0.54c0.46,0.13,1.21,0.48,2.24,1.02
			c2.03,1.08,3.35,1.56,4.33,1.56c1.13,0,1.95-0.77,1.95-1.82c0-0.35-0.08-0.93-0.19-1.38c-0.06-0.23-0.15-0.44-0.29-0.63
			c-0.08-0.13-0.18-0.19-0.24-0.19c-0.13,0-0.22,0.15-0.22,0.4l0.02,0.33l0.02,0.28c0,0.9-0.35,1.21-1.34,1.21
			c-0.81,0-1.89-0.32-4.37-1.31c-2.32-0.91-3.76-1.26-5.21-1.26c-3.66,0-6.87,2.99-6.87,6.4c0,2.95,1.95,5.2,5.95,6.84l4.14,1.7
			c3.42,1.41,4.67,2.41,4.67,3.74c0,1.11-1.03,1.82-2.64,1.82c-0.69,0-1.56-0.19-3.15-0.7c-3.88-1.23-6.39-1.75-8.6-1.75
			c-3.61,0-6.19,0.99-8.23,3.16c-0.27,0.29-0.43,0.38-0.67,0.38c-0.16,0-0.33-0.06-0.69-0.28c-0.37-0.22-0.78-0.35-1.07-0.35
			c-0.35,0-0.91,0.31-1.17,0.64l-0.49,0.63c-0.14,0.19-0.3,0.29-0.43,0.29c-0.35,0-0.98-0.6-1.37-1.32
			c-0.24-0.44-0.4-0.87-0.49-1.26c-0.06-0.31-0.1-0.81-0.1-1.33l0.06-0.91l0.14-0.97c0.07-0.47,0.12-0.75,0.15-0.83
			c0.04-0.12,0.13-0.19,0.23-0.19c0.25,0,0.37,0.23,0.37,0.76l-0.01,0.31l-0.01,0.22c0,1.38,0.55,2.65,1.15,2.65
			c0.48,0,0.89-0.85,1.25-2.53c0.07-0.34,0.2-0.53,0.37-0.53c0.19,0,0.31,0.25,0.45,0.97c0.09,0.47,0.4,1.13,0.73,1.56
			c0.19,0.25,0.39,0.39,0.56,0.39c0.4,0,0.66-0.6,0.86-2c0.08-0.55,0.24-0.88,0.43-0.88c0.08,0,0.15,0.04,0.2,0.11
			c0.04,0.04,0.15,0.22,0.34,0.53c0.12,0.2,0.31,0.37,0.53,0.49c0.25,0.13,0.44,0.19,0.57,0.19c0.15,0,0.31-0.07,0.45-0.19
			c0.22-0.19,0.34-0.34,0.34-0.4c0-0.07-0.11-0.23-0.29-0.43c-0.32-0.34-0.57-0.8-0.88-1.61c-0.2-0.53-0.35-0.9-0.44-1.12
			c-0.07-0.18-0.16-0.3-0.25-0.34l-0.15-0.04l-0.28,0.04c-0.06,0.01-0.4,0.12-1.02,0.29l-0.31,0.05c-0.14,0-0.23-0.09-0.23-0.23
			c0-0.13,0.17-0.36,0.4-0.54c1.23-0.98,1.96-2.63,2.24-5.01c0.17-1.45,0.35-2.01,0.97-2.87c0.13-0.19,0.25-0.3,0.31-0.3
			c0.19,0,0.29,0.15,0.29,0.43c0,0.19-0.05,0.42-0.15,0.69c-0.07,0.19-0.11,0.39-0.11,0.59l0.01,0.19l0.1,0.3l0.53-0.2l0.58-0.68
			c0.35-0.4,0.64-1.32,0.64-1.99c0-0.46-0.12-0.79-0.39-1.12c-0.31-0.37-0.52-0.51-0.74-0.51l-0.33,0.02l-0.34,0.03
			c-0.32,0-0.47-0.09-0.47-0.28l0.08-0.38l0.05-0.54l-0.29-1.21l-0.25-0.59l-0.14-0.48l-0.34,0.24l-0.73,0.44
			c-0.19,0.12-0.38,0.3-0.58,0.54c-0.69,0.84-0.74,0.88-1.01,0.88c-0.18,0-0.27-0.06-0.27-0.19l0.02-0.2
			c0.1-0.44,0.15-0.78,0.15-1.01c0-0.85-0.62-2.13-1.37-2.83c-1.01,0.97-1.56,2.05-1.56,3.07v0.58c0,0.23-0.07,0.34-0.22,0.34h-0.02
			c-0.12-0.02-0.24-0.11-0.34-0.25l-0.58-0.78c-0.04-0.06-0.3-0.26-0.78-0.63c-0.09-0.07-0.22-0.18-0.39-0.34l-0.19,0.39
			c-0.49,0.96-0.65,1.54-0.69,2.33c-0.02,0.65-0.07,0.84-0.23,0.84c-0.07,0-0.18-0.04-0.31-0.11c-0.74-0.42-0.81-0.44-1.13-0.44
			c-0.88,0-1.47,0.63-1.47,1.55c0,0.36,0.2,0.9,0.6,1.62c0.44,0.79,1.12,1.52,1.41,1.52c0.08,0,0.1-0.06,0.1-0.3v-0.1l-0.05-0.82
			l-0.1-0.63l0-0.09c0-0.19,0.07-0.27,0.22-0.27c0.44,0,0.82,1.29,1.15,3.86c0.28,2.26,0.91,3.82,1.89,4.72
			c0.25,0.23,0.4,0.42,0.4,0.53c0,0.08-0.09,0.15-0.19,0.15c-0.14,0-0.37-0.09-0.64-0.25c-0.18-0.1-0.36-0.15-0.53-0.15
			c-0.49,0-1.03,0.57-1.13,1.18l-0.44,2.77l-0.34,3.89c-0.06,0.74,0.04,1.72,0.29,2.92c0.23,1.05,0.34,1.82,0.34,2.31
			c0,2.92-1.82,5.22-4.82,6.11l-3.12,0.93c-1.94,0.57-2.89,1.85-3.16,4.23c0.5-0.4,0.65-0.46,1.41-0.58l0.92-0.14
			c0.39-0.06,0.67-0.15,0.83-0.25c0.08-0.06,0.27-0.24,0.54-0.54l0.82-0.92c0.31-0.35,0.59-0.55,0.77-0.55
			c0.11,0,0.21,0.13,0.21,0.28c0,0.18-0.12,0.46-0.34,0.8c-0.23,0.36-0.36,0.8-0.36,1.25c0,0.62,0.17,1.01,0.79,1.91
			c0.08-0.29,0.15-0.49,0.2-0.58c0.08-0.16,0.32-0.5,0.73-1.02c0.68-0.87,1.16-1.78,1.17-2.19c0.01-0.75,0.08-1,0.27-1
			c0.17,0,0.19,0.04,0.27,0.47c0.02,0.11,0.07,0.2,0.14,0.29c0.12,0.12,0.22,0.19,0.3,0.19c0.06,0,0.19-0.07,0.38-0.19
			c0.33-0.22,0.6-0.45,0.78-0.68c0.2-0.25,0.36-0.55,0.49-0.88c0.16-0.43,0.25-0.74,0.25-0.92l0-0.63c0-0.17,0.07-0.31,0.16-0.31
			c0.12,0,0.36,0.25,0.52,0.54c0.11,0.19,0.18,0.25,0.31,0.25h0.03c0.18-0.02,0.33-0.09,0.44-0.2c0.59-0.58,0.97-1.29,0.97-1.82
			l-0.05-0.9l-0.2-0.74l-0.01-0.06c0-0.15,0.11-0.27,0.24-0.27c0.22,0,0.46,0.31,0.8,1.02c0.16,0.34,0.3,0.5,0.44,0.5
			c0.23,0,0.41-0.17,0.87-0.83l0.44-0.63c0.1-0.14,0.15-0.31,0.15-0.49c0-0.17-0.05-0.34-0.15-0.48l-0.39-0.58
			c-0.06-0.1-0.1-0.27-0.1-0.49c0-0.66,0.24-1.41,0.73-2.29c0.36-0.63,0.56-1.04,0.63-1.22c0.08-0.2,0.16-0.29,0.27-0.29
			c0.09,0,0.17,0.12,0.17,0.25l-0.05,0.54v0.39v0.39c0.06,0.18,0.19,0.25,0.42,0.25c0.15,0,0.32-0.03,0.5-0.1l1.22-0.44
			c0.29-0.11,0.66-0.29,1.12-0.54c1.91-1.06,2.5-1.27,3.44-1.27c0.56,0,1.28,0.21,2.31,0.69c0.21,0.1,0.38,0.15,0.5,0.15
			c0.14,0,0.3-0.09,0.42-0.25c0.1-0.11,0.15-0.25,0.15-0.37c0-0.18-0.07-0.39-0.19-0.61c-0.16-0.27-0.3-0.61-0.3-0.73
			c0-0.13,0.08-0.21,0.22-0.21c0.11,0,0.28,0.12,0.37,0.26c0.14,0.23,0.52,0.88,1.12,1.94c0.91,1.61,2.09,2.74,3.12,2.97l2.14,0.49
			c0.66,0.15,0.83,0.41,0.83,1.24c0,1.51-0.72,2.84-1.95,3.63l-1.76,1.12c-0.63,0.41-1.17,1.52-1.17,2.46c0,0.6,0.14,1.66,0.34,2.5
			l0.34-0.34l0.83-0.49l0.73-0.73l0.39-1.07l0.38-0.97c0.19-0.47,0.41-0.78,0.57-0.78c0.17,0,0.26,0.27,0.26,0.74l0,0.14l0,0.18
			C396.87,571.96,396.96,572.26,397.51,573.31"/>
		<path id="path5062" class="st3" d="M368.75,588.06c0.59-0.55,0.69-0.59,2.34-0.93c1.33-0.27,1.95-0.88,2.24-2.19
			c0.21-0.97,0.34-1.15,1.21-1.66c0.28-0.16,0.5-0.32,0.63-0.49c0.11-0.12,0.19-0.19,0.24-0.19c0.1,0,0.17,0.1,0.17,0.22
			c0,0.17-0.11,0.44-0.31,0.81c-0.13,0.23-0.19,0.52-0.19,0.93c0,0.78,0.16,1.32,0.58,1.94c0.3-0.65,0.46-0.83,1.22-1.37
			c0.97-0.68,1.33-1.46,1.51-3.21c0.07-0.74,0.21-1.13,0.42-1.13c0.09,0,0.17,0.06,0.21,0.15l0.34,0.73
			c0.05,0.1,0.17,0.16,0.31,0.16c0.14,0,0.4-0.14,0.62-0.36l0.69-0.63c0.29-0.27,0.48-0.94,0.58-2.05c0.04-0.4,0.18-0.68,0.34-0.68
			c0.1,0,0.2,0.1,0.25,0.24l0.29,0.98c0.07,0.23,0.21,0.39,0.35,0.39c0.06,0,0.2-0.08,0.38-0.25c0.26-0.22,0.49-0.47,0.68-0.73
			c0.22-0.31,0.34-0.65,0.34-0.98v-0.82c0-0.18,0.07-0.37,0.19-0.53c0.1-0.13,0.18-0.2,0.22-0.2c0.11,0,0.22,0.1,0.27,0.25
			l0.19,0.54c0.09,0.23,0.27,0.39,0.46,0.39c0.25,0,0.51-0.22,0.91-0.78c0.11-0.16,0.21-0.29,0.29-0.39
			c0.22-0.27,0.34-0.49,0.34-0.62c0-0.06-0.06-0.19-0.19-0.35c-0.71-0.93-1.07-2.04-1.07-3.31c0-1.62,0.61-2.98,2.48-5.51
			c1.12-1.51,1.75-2.92,1.75-3.9c0-0.28-0.13-0.42-0.38-0.42c-0.17,0-0.35,0.06-0.59,0.18c-0.18,0.1-0.31,0.15-0.37,0.15
			c-0.09,0-0.2-0.07-0.31-0.2l-0.34-0.39l-0.24-0.39c-0.1-0.15-0.25-0.25-0.4-0.25c-0.03,0-0.15,0.04-0.38,0.1l-0.44,0.05
			c-0.5,0.02-0.69,0.2-0.69,0.68l0.01,0.29l0.01,0.22c0,0.43-0.38,1.08-0.88,1.54l-0.93,0.83c-1.14,1.01-2.02,2.64-2.02,3.72
			c0,0.46,0.15,1.21,0.42,2.11c0.44,1.46,0.59,2.15,0.59,2.63c0,2.33-3.57,5.4-10.18,8.76c-3.35,1.7-4.2,2.71-4.2,5.02
			L368.75,588.06"/>
		<path id="path5066" class="st3" d="M365.53,537.01v0.49l0,0.72c0,0.26-0.02,0.44-0.1,0.79c-0.16,0.68-0.19,0.91-0.19,1.1
			c0,0.93,0.13,1.39,0.68,2.35c0.3,0.53,0.5,1.17,0.5,1.63c0,0.19-0.08,0.31-0.21,0.31c-0.08,0-0.17-0.06-0.24-0.14l-0.39-0.54
			c-0.31-0.43-0.6-0.54-1.39-0.54l-0.85,0.05c0.34,0.83,0.45,1.15,0.58,1.7c0.39,1.59,0.45,1.7,1.32,2.48
			c0.87,0.79,0.95,0.89,0.95,1.17c0,0.22-0.15,0.39-0.34,0.39l-0.32-0.05l-0.19-0.02c-0.27,0-0.5,0.49-0.5,1.03
			c0,0.31,0.12,0.81,0.31,1.23c0.12,0.28,0.24,0.48,0.34,0.58l0.49,0.49c0.13,0.13,0.19,0.31,0.19,0.5c0,0.24-0.13,0.44-0.3,0.44
			c-0.1,0-0.25-0.06-0.44-0.15c-0.12-0.06-0.24-0.1-0.34-0.1c-0.22,0-0.32,0.13-0.32,0.4l0.08,0.72l0.29,1.26
			c0.06,0.28,0.25,0.6,0.53,0.93c0.25,0.28,0.5,0.48,0.73,0.58c0.62,0.27,0.94,0.42,0.97,0.44c0.09,0.06,0.15,0.21,0.15,0.39
			c0,0.19-0.15,0.34-0.32,0.34c-0.06,0-0.22-0.03-0.5-0.1l-0.5-0.05c-0.49,0-0.53,0.02-0.53,0.41c0,0.25,0.03,0.5,0.1,0.76
			l0.19,0.78c0.2,0.82,0.47,1.26,0.76,1.26c0.06,0,0.19-0.07,0.35-0.19c0.7-0.54,2.12-1.02,3.01-1.02c0.92,0,1.96,0.11,2.35,0.25
			c0.22,0.07,0.38,0.12,0.47,0.12c0.12,0,0.16-0.12,0.17-0.55l0.1-0.88l0.19-1.5l0.14-1.12v-0.63c-0.17,0.15-0.31,0.26-0.39,0.34
			c-0.83,0.78-1.35,1.02-2.2,1.02c-2.24,0-3.52-2.51-3.52-6.91c0-1.81,0.27-4.37,0.77-7.3c0.1-0.62,0.15-1.05,0.15-1.35
			C368.32,539.71,367.3,538.14,365.53,537.01"/>
		<path id="path5070" class="st3" d="M368.84,547.91l0.44-0.44l0.44-0.39c0.36-0.32,0.66-1,0.66-1.5c0-0.23-0.06-0.44-0.17-0.69
			c-0.17-0.36-0.49-0.69-0.69-0.69c-0.17,0-0.31,0.4-0.38,1.03l-0.1,0.73l-0.15,0.73l-0.05,0.73L368.84,547.91"/>
		<path id="path5074" class="st3" d="M364.56,567.82c0.5,0.19,0.6,0.27,1.12,0.88c0.67,0.78,1.05,0.97,1.94,0.97
			c0.24,0,0.47-0.03,0.69-0.1l0.63-0.19l0.49-0.15c0.23-0.06,0.39-0.17,0.39-0.25c0-0.1-0.38-0.42-0.97-0.82
			c-0.39-0.26-0.78-0.49-1.17-0.68c-0.43-0.2-0.77-0.3-1.12-0.3C365.88,567.17,365.21,567.39,364.56,567.82"/>
		<path id="path5078" class="st3" d="M371.18,582.07c0.86-0.38,1.16-0.53,2.14-1.07c0.86-0.47,1.32-0.73,1.41-0.78
			c0.9-0.48,1.32-0.81,1.32-1.07c0-0.32-0.55-0.5-1.49-0.5c-1.88,0-3.43,1.29-3.43,2.86L371.18,582.07"/>
		<path id="path5082" class="st3" d="M390.94,569.71c0.69-0.14,0.92-0.32,1.26-0.33l0.88,0.04c0.11-0.04,0.31-0.17,0.58-0.38
			c0.16-0.12,0.38-0.29,0.69-0.49c0.97-0.66,1.02-0.7,1.02-0.92c0-0.27-0.39-0.4-1.21-0.4
			C392.62,567.22,391.69,567.95,390.94,569.71"/>
		<path id="path5086" class="st1" d="M291.18,452.43l-0.24-0.68l-0.07-0.39c0-0.4,0.2-0.62,0.75-0.82c0.96-0.36,1.26-0.52,1.65-0.88
			l0.54-0.49l0.05-0.02c0.14,0,0.24,0.16,0.24,0.37c0,0.62-0.66,1.76-1.35,2.93c-0.5,0.86-0.74,1.4-0.94,1.4
			c-0.24,0-0.47-0.38-0.53-0.82L291.18,452.43"/>
		<path id="path5090" class="st1" d="M288.31,450.49l0.82,0.44c0.23,0.12,0.35,0.28,0.35,0.47l-0.06,0.31
			c-0.13,0.41-0.03,0.87-0.04,1.04c-0.04,0.87-0.7,0.86-0.97,0.86c-0.16,0-0.07-0.1-0.46-0.54l-1.07-1.22
			c-0.33-0.38-0.62-1.23-0.73-2.19l0-0.13c0-0.26,0.08-0.36,0.3-0.36c0.13,0,0.37,0.11,0.54,0.25L288.31,450.49"/>
		<path id="path5094" class="st1" d="M291.23,455.55l0.78-0.49l0.46,0.1c0.54,0,0.67,0.16,0.67,0.75c0,0.87-0.54,1.23-1.51,3.67
			c-0.43,1.08-0.52,1.7-1.16,1.7c-0.71,0-1.25-0.58-1.81-1.95l-0.63-1.56c-0.44-1.1-0.64-1.76-0.64-2.16c0-0.37,0.29-0.62,0.72-0.62
			c0.24,0,0.48,0.07,0.7,0.2c0.38,0.22,0.57,0.34,0.58,0.34l0.56,0.06l0.26-0.01L291.23,455.55"/>
		<path id="path5098" class="st1" d="M382.14,452.6l-0.4-0.84l-0.07-0.39c0-0.42,0.18-0.61,0.8-0.83c0.62-0.22,1.29-0.59,1.6-0.88
			l0.54-0.49l0.05-0.02c0.14,0,0.24,0.16,0.24,0.37c0,0.62-0.57,1.6-1.26,2.77c-0.5,0.86-0.82,1.56-1.03,1.56
			c-0.24,0-0.48-0.37-0.53-0.82L382.14,452.6"/>
		<path id="path5102" class="st1" d="M379.11,450.49l0.82,0.44c0.24,0.13,0.37,0.33,0.37,0.57l-0.03,0.2l-0.24,0.88l-0.15,0.97
			c-0.02,0.12-0.13,0.2-0.26,0.2l-0.03,0c-0.2-0.06-0.72-0.28-1.06-0.67l-0.73-1.23c-0.11-0.13-0.4-0.59-0.64-1.36
			c-0.08-0.28-0.15-0.56-0.19-0.82l-0.01-0.14c0-0.25,0.09-0.35,0.3-0.35c0.13,0,0.37,0.11,0.54,0.25L379.11,450.49"/>
		<path id="path5106" class="st1" d="M382.08,455.55l0.73-0.49l0.28-0.06c0.54,0,1.16,0.54,1.16,1.09c0,0.48-0.64,0.76-0.9,1.44
			l-0.54,2.19c-0.39,1.04-0.9,1.56-1.53,1.56c-0.74,0-1.29-0.59-1.83-1.95c-0.25-0.63-0.46-1.15-0.63-1.56
			c-0.4-0.95-0.63-1.66-0.63-2.03c0-0.47,0.27-0.75,0.72-0.75c0.23,0,0.47,0.07,0.69,0.2c0.37,0.22,0.56,0.33,0.58,0.34l0.57,0.06
			l0.26-0.01L382.08,455.55"/>
		<path id="path5110" class="st1" d="M287.09,541.44l-0.25-0.73l-0.05-0.21c0-0.07,0.09-0.13,0.2-0.13c0.11,0,0.38,0.13,0.58,0.3
			c0.21,0.17,0.35,0.16,0.68,0.25c1.33,0.34,1.61,0.59,1.61,1.23l-0.05,0.82l-0.19,0.73c-0.08,0.31-0.16,0.42-0.31,0.42
			c-0.11,0-0.94-0.61-1.05-0.76l-0.49-0.68L287.09,541.44"/>
		<path id="path5114" class="st1" d="M292.98,542.65l-0.63,1.13c-0.15,0.18-0.24,0.27-0.24,0.27l-0.05,0.01
			c-0.26,0-0.52-0.59-0.54-1.2l-0.1-0.97c0.07-0.4,0.31-0.57,0.92-0.68c0.49-0.09,0.82-0.19,0.98-0.29
			c0.46-0.33,0.72-0.51,0.78-0.54l0.08-0.01c0.13,0,0.23,0.09,0.23,0.24l-0.01,0.07l-0.34,0.83L292.98,542.65"/>
		<path id="path5118" class="st1" d="M291.71,545.97l0.78-0.39c0.13-0.06,0.26-0.1,0.37-0.1c0.38,0,0.66,0.28,0.66,0.79
			c0,0.56-0.44,1.3-1.03,2.38c-0.64,1.16-1.13,1.95-1.63,1.95c-0.7,0-1.69-1.11-2.66-2.97c-0.22-0.44-0.37-0.96-0.37-1.35
			c0-0.62,0.27-0.94,0.78-0.94c0.21,0,0.41,0.05,0.56,0.15l0.44,0.29c0.38,0.25,0.81,0.39,1.24,0.39
			C291.17,546.16,291.46,546.1,291.71,545.97"/>
		<path id="path5122" class="st1" d="M376.24,540.08l0.68,0.44c0.39,0.25,0.71,0.43,0.97,0.53c0.75,0.31,1.02,0.42,1.02,0.71
			c0,0.11-0.03,0.37-0.1,0.56c-0.07,0.22-0.12,0.45-0.14,0.69c-0.07,0.66-0.47,0.82-0.74,0.82c-0.32,0-0.67-0.5-1.21-1.46
			c-0.24-0.44-0.59-1.3-0.78-1.94l-0.03-0.19c0-0.12,0.07-0.19,0.21-0.19L376.24,540.08"/>
		<path id="path5126" class="st1" d="M382.81,541.78l-1.12,1.13c-0.4,0.52-0.4,0.98-0.49,1.07c-0.07,0.07-0.19,0.13-0.34,0.14
			l-0.07,0.01c-0.28,0-0.5-0.2-0.51-0.5l-0.05-0.82l-0.05-0.83v-0.05c0-0.32,0.18-0.48,0.43-0.54l1.03-0.28l1.07-0.54
			c0.31-0.15,0.41-0.19,0.46-0.19c0.13,0,0.23,0.13,0.23,0.28c0,0.07-0.04,0.17-0.11,0.31L382.81,541.78"/>
		<path id="path5130" class="st1" d="M377.89,545.09l0.73,0.54c0.18,0.11,0.4,0.16,0.65,0.16c0.3,0,0.74-0.12,1.15-0.31l0.63-0.29
			c0.14-0.06,0.27-0.1,0.38-0.1c0.39,0,0.69,0.41,0.69,0.93c0,0.71-0.52,1.46-1.27,2.53l-0.53,1.12c-0.43,0.61-0.71,0.83-1.06,0.83
			c-0.58,0-0.86-0.33-1.72-2.05c-0.62-1.23-0.88-1.98-0.88-2.58c0-0.51,0.26-0.87,0.65-0.87
			C377.49,544.99,377.68,544.96,377.89,545.09"/>
		<path id="path5134" class="st3" d="M290.16,456.96h-0.63c-0.09,0-0.19,0.06-0.24,0.15l-0.1,0.25l0.24,1.17l0.19,1.02
			c0.11,0.56,0.31,0.78,0.73,0.78c0.48,0,0.77-0.33,0.82-0.93l0.1-1.07c0.06-0.72,0.09-1.09,0.09-1.12c0-0.1-0.05-0.21-0.14-0.3
			c-0.07-0.07-0.16-0.11-0.25-0.11l-0.05,0.01L290.16,456.96"/>
		<path id="path5138" class="st3" d="M380.96,456.96h-0.58c-0.09,0-0.18,0.06-0.25,0.15c-0.09,0.13-0.14,0.22-0.14,0.25l0.24,1.17
			l0.19,1.02c0.11,0.56,0.2,0.78,0.62,0.78c0.48,0,0.88-0.33,0.94-0.93l0.1-1.07c0.06-0.72,0.1-1.09,0.1-1.12
			c0-0.1-0.06-0.21-0.15-0.3c-0.07-0.07-0.16-0.11-0.25-0.11l-0.05,0.01L380.96,456.96"/>
		<path id="path5142" class="st3" d="M290.59,547.13l-0.54-0.1l-0.08,0c-0.31,0-0.46,0.18-0.46,0.53c0,0.49,0.38,1.4,0.88,2.11
			c0.09,0.13,0.23,0.2,0.37,0.2c0.31,0,0.54-0.59,0.7-1.57l0.15-0.73l0.01-0.14c0-0.3-0.09-0.41-0.33-0.41l-0.12,0.01L290.59,547.13
			"/>
		<path id="path5146" class="st3" d="M378.53,547.77l0.05,0.93c0.02,0.42,0.37,0.83,0.71,0.83c0.44,0,0.76-0.68,0.94-1.71
			c0.08-0.47,0.11-0.54,0.11-0.68c0-0.36-0.12-0.45-0.58-0.45l-0.26,0.01h-0.34l-0.21-0.01c-0.31,0-0.42,0.24-0.42,0.86
			L378.53,547.77"/>
		<path id="path5150" class="st1" d="M323.73,500.61h5.15c0.58-1.23,1.38-1.76,2.6-1.76c1.22,0,2,0.51,2.7,1.76h4.22
			c0.51-1.13,1.52-1.77,2.76-1.77c1.15,0,2.26,0.75,2.63,1.77h3.92c0.59-1.14,1.51-1.77,2.57-1.77c1.09,0,1.98,0.5,2.63,1.47
			l0.2,0.3h5.45v25.22h-4.76v9.67h-5.59v-9.67h-14.13v9.67h-5.59v-9.77h-4.76V500.61"/>
		<path id="path5152" class="st2" d="M325.77,523.89h30.95v-21.21h-30.95V523.89L325.77,523.89z"/>
		<path id="path5156" class="st3" d="M328.98,507.53c-0.81,0-1.47,0.66-1.47,1.47s0.66,1.47,1.47,1.47c0.82,0,1.47-0.66,1.47-1.47
			S329.8,507.53,328.98,507.53"/>
		<path id="XMLID_13_" class="st1" d="M328.98,510.68c-0.92,0-1.67-0.75-1.67-1.67c0-0.92,0.75-1.67,1.67-1.67
			c0.92,0,1.67,0.75,1.67,1.67C330.66,509.93,329.91,510.68,328.98,510.68z M328.98,507.73c-0.7,0-1.27,0.57-1.27,1.27
			s0.57,1.27,1.27,1.27c0.7,0,1.27-0.57,1.27-1.27S329.69,507.73,328.98,507.73z"/>
		<path id="path5164" class="st3" d="M353.28,507.53c-0.82,0-1.47,0.66-1.47,1.47s0.66,1.47,1.47,1.47c0.81,0,1.47-0.66,1.47-1.47
			S354.09,507.53,353.28,507.53"/>
		<path id="XMLID_10_" class="st1" d="M353.28,510.68c-0.92,0-1.67-0.75-1.67-1.67c0-0.92,0.75-1.67,1.67-1.67
			c0.92,0,1.67,0.75,1.67,1.67C354.95,509.93,354.2,510.68,353.28,510.68z M353.28,507.73c-0.7,0-1.27,0.57-1.27,1.27
			s0.57,1.27,1.27,1.27c0.7,0,1.27-0.57,1.27-1.27S353.98,507.73,353.28,507.73z"/>
		<path id="path5172" class="st3" d="M328.98,519.06c-0.81,0-1.47,0.66-1.47,1.47c0,0.82,0.68,1.47,1.52,1.47
			c0.79,0,1.42-0.66,1.42-1.47C330.46,519.73,329.8,519.06,328.98,519.06"/>
		<path id="XMLID_7_" class="st1" d="M329.03,522.21c-0.95,0-1.72-0.75-1.72-1.67c0-0.92,0.75-1.67,1.67-1.67
			c0.92,0,1.67,0.75,1.67,1.67C330.66,521.46,329.93,522.21,329.03,522.21z M328.98,519.26c-0.7,0-1.27,0.57-1.27,1.27
			c0,0.7,0.59,1.27,1.32,1.27c0.67,0,1.22-0.57,1.22-1.27C330.26,519.83,329.69,519.26,328.98,519.26z"/>
		<path id="path5180" class="st3" d="M353.28,519.06c-0.82,0-1.47,0.66-1.47,1.47c0,0.82,0.66,1.47,1.47,1.47
			c0.81,0,1.47-0.66,1.47-1.47C354.75,519.73,354.09,519.06,353.28,519.06"/>
		<path id="XMLID_4_" class="st1" d="M353.28,522.21c-0.92,0-1.67-0.75-1.67-1.67c0-0.92,0.75-1.67,1.67-1.67
			c0.92,0,1.67,0.75,1.67,1.67C354.95,521.46,354.2,522.21,353.28,522.21z M353.28,519.26c-0.7,0-1.27,0.57-1.27,1.27
			c0,0.7,0.57,1.27,1.27,1.27c0.7,0,1.27-0.57,1.27-1.27C354.55,519.83,353.98,519.26,353.28,519.26z"/>
		<path id="path5188" class="st3" d="M333.6,514.6c2,2.5,4.51,3.73,7.62,3.73c2.89,0,4.87-1.03,7.2-3.73
			c-2.32-2.39-4.49-3.39-7.34-3.39C338.09,511.21,335.39,512.44,333.6,514.6"/>
		<path id="path5192" class="st1" d="M335.07,514.6c2.06-1.6,3.79-2.26,5.94-2.26c2.17,0,3.78,0.63,5.89,2.31
			c-1.83,1.82-3.45,2.51-5.92,2.51C338.77,517.15,336.77,516.28,335.07,514.6"/>
		<path id="path5196" class="st3" d="M337.57,514.11c1.23,0.77,2.2,1.08,3.35,1.08c1.35,0,2.48-0.34,3.57-1.08
			c-1.15-0.55-2.34-0.84-3.51-0.84C339.75,513.27,338.6,513.55,337.57,514.11"/>
		<path id="path5198" class="st1" d="M325.33,504.85h31.81v-1.08h-31.81V504.85z"/>
		<path id="XMLID_1_" class="st1" d="M357.21,504.91h-31.95v-1.22h31.95V504.91z M325.4,504.78h31.68v-0.95H325.4V504.78z"/>
		<path id="path5204" class="st3" d="M330.21,502.38v2.5v0.54c0,0.72,0.57,1.27,1.31,1.27c0.86,0,1.34-0.46,1.34-1.27v-0.54v-2.45
			c0-1.15-0.47-1.87-1.22-1.87c-0.15,0-0.39,0.06-0.59,0.15c-0.16,0.07-0.28,0.14-0.34,0.19c-0.12,0.1-0.22,0.23-0.3,0.39
			c-0.13,0.26-0.19,0.45-0.19,0.54V502.38"/>
		<path id="path5208" class="st3" d="M339.78,504.88v0.54c0,0.72,0.57,1.27,1.31,1.27c0.86,0,1.34-0.46,1.34-1.27v-0.54v-2.45
			c0-1.14-0.47-1.88-1.22-1.88c-0.88,0-1.44,0.71-1.44,1.83V504.88"/>
		<path id="path5212" class="st3" d="M349.06,502.38v2.5v0.54c0,0.72,0.57,1.27,1.31,1.27c0.86,0,1.34-0.46,1.34-1.27v-0.54v-2.45
			c0-1.15-0.47-1.87-1.22-1.87c-0.15,0-0.39,0.06-0.59,0.15c-0.16,0.07-0.28,0.14-0.34,0.19c-0.12,0.1-0.22,0.23-0.3,0.39
			c-0.13,0.26-0.19,0.45-0.19,0.54V502.38"/>
		<path id="path5214" class="st3" d="M329.53,531.77h2.89v-3.73h-2.89V531.77z"/>
		<path id="path5216" class="st3" d="M329.53,533.79h2.89v-1.18h-2.89V533.79z"/>
		<path id="path5218" class="st3" d="M349.25,531.77h2.9v-3.73h-2.9V531.77z"/>
		<path id="path5220" class="st3" d="M349.25,533.79h2.9v-1.18h-2.9V533.79z"/>
	</g>
</g>
<g>
</g>
<g>
</g>
<g>
</g>
<g>
</g>
<g>
</g>
<g>
</g>
</svg>
