<?xml version="1.0" encoding="utf-8"?>
<!-- Generator: Adobe Illustrator 25.0.0, SVG Export Plug-In . SVG Version: 6.00 Build 0)  -->
<svg version="1.1" id="Layer_1" xmlns="http://www.w3.org/2000/svg" xmlns:xlink="http://www.w3.org/1999/xlink" x="0px" y="0px"
	 viewBox="0 0 382 679" style="enable-background:new 0 0 382 679;" xml:space="preserve">
<style type="text/css">
	.st0{fill:#FFFFFF;}
	.st1{fill:#3D3D55;}
	.st2{fill:url(#SVGID_1_);}
	.st3{fill:url(#SVGID_2_);}
	.st4{fill:url(#SVGID_3_);}
	.st5{fill:#EC9D72;}
	.st6{fill:#F39669;}
</style>
<rect class="st0" width="382" height="673.91"/>
<g>
	<g>
		<path class="st1" d="M93.23,402.73h-6.11l-0.33-6.7c-3.64,4.68-9.16,7.61-16.32,7.61c-13.26,0-22.95-10.27-22.95-23.01
			c0-13.33,10.79-23.01,23.27-23.01c6.31,0,11.44,2.01,14.89,5.72v-4.81h7.28v16.58h-7.35c-1.69-6.11-7.47-10.01-14.37-10.01
			c-8.71,0-15.54,6.37-15.54,15.54c0,8.58,6.31,15.47,15.15,15.47c7.22,0,12.68-4.55,14.5-10.92H70.54v-6.7h22.69V402.73z"/>
		<path class="st1" d="M134.48,402.73H122v-2.53c-2.67,2.21-5.79,3.51-9.49,3.51c-8.06,0-13.46-5.85-13.46-14.76v-3.62h-4.09v-6.85
			h11.56v10.01c0,5.33,2.86,8.39,7.54,8.39c2.67,0,5.59-1.56,7.93-4.49v-13.92h-4.88v-6.89h12.35v24.25h5.01V402.73z"/>
		<path class="st1" d="M143.12,356.84c-2.86,0-5.14,2.14-5.14,5c0,2.8,2.27,4.94,5.14,4.94c2.79,0,5.07-2.14,5.07-4.94
			C148.2,358.98,145.92,356.84,143.12,356.84z M150.69,395.85h-3.86v-24.26h-12.35v6.9h4.88v17.36h-4.88v6.89h22.37
			C154.26,401.03,152.13,398.66,150.69,395.85z"/>
		<path class="st1" d="M193.14,402.73c-2.59-1.7-4.71-4.07-6.14-6.89h-3.85v-39.27h-12.41v6.9h4.93v10.65
			c-2.54-1.81-5.72-2.85-9.42-2.85c-8.58,0-15.47,7.15-15.47,16.05c0,8.97,6.89,16.12,15.47,16.12c3.7,0,6.89-1.04,9.42-2.92v2.21
			H193.14z M167.35,396.95c-5.26,0-9.1-4.49-9.1-9.62c0-5.07,3.84-9.56,9.1-9.56c2.93,0,5.66,0.98,8.32,3.84v11.77
			C173,395.97,170.28,396.95,167.35,396.95z"/>
		<path class="st1" d="M219.47,395.84h9.29v6.89h-16.77v-2.14c-2.53,1.82-5.72,2.86-9.43,2.86c-8.58,0-15.47-7.15-15.47-16.06
			c0-8.97,6.89-16.12,15.47-16.12c3.71,0,6.89,1.04,9.43,2.86v-2.54h12.42v6.89h-4.94V395.84z M211.99,388.63v-2.79
			c0-4.12-3.1-7.64-7.2-8.02c-0.37-0.03-0.75-0.05-1.12-0.05c-5.26,0-9.1,4.49-9.1,9.62c0,5.07,3.83,9.56,9.1,9.56
			c0.29,0,0.58-0.01,0.87-0.03C208.8,396.62,211.99,392.89,211.99,388.63z"/>
		<path class="st1" d="M251.7,395.85v6.89h22.2c-2.78-1.69-5.03-4.05-6.51-6.89h-3.26v-10.08c0-8.9-5.4-14.76-13.53-14.76
			c-3.7,0-6.89,1.31-9.49,3.51v-2.93h-12.35v6.9h4.87v17.36h-4.87v6.89h17.36v-6.89h-5.01v-13.53c2.33-2.92,5.26-4.48,7.93-4.48
			c4.75,0,7.54,2.98,7.54,8.38v9.62H251.7z"/>
		<path class="st1" d="M299.56,391.23c-1.04,7.28-6.83,12.22-15.15,12.22c-9.82,0-16.97-6.83-16.97-16.06
			c0-9.23,6.89-15.99,16.38-15.99c3.45,0,6.37,1.04,8.58,2.86v-2.28h6.96v11.51h-7.28c-0.85-3.25-3.84-5.4-7.67-5.4
			c-5.4,0-9.49,4.1-9.49,9.3c0,5.2,4.09,9.3,9.49,9.3c3.77,0,6.63-2.14,7.47-5.46H299.56z"/>
		<path class="st1" d="M331.85,397.04h-12.04h-1.84c-4.67-0.33-7.25-3.13-8.16-6.73h23.66c0.2-1.17,0.2-2.34,0.2-3.45
			c0-9.23-6.38-15.6-15.34-15.6c-9.36,0-16.05,6.95-16.05,16.12c0,8.89,6.25,15.98,15.69,16.3v0.02h20.46v-6.66H331.85z
			 M318.53,377.18c4.62,0,7.35,3.06,8,7.22h-16.71C310.79,380.44,313.72,377.18,318.53,377.18z"/>
	</g>
	<g>
		<g>
			<linearGradient id="SVGID_1_" gradientUnits="userSpaceOnUse" x1="175.4459" y1="361.8178" x2="175.4459" y2="302.546">
				<stop  offset="0" style="stop-color:#F4A27D"/>
				<stop  offset="1" style="stop-color:#3D3D55"/>
			</linearGradient>
			<path class="st2" d="M193.68,315.16c-0.52-1.53-1.34-2.94-2.38-4.16c-0.46-0.54-0.97-1.04-1.51-1.5c-0.49-0.41-1-0.79-1.54-1.13
				c-0.02-0.01-0.04-0.02-0.05-0.03c-0.04-0.03-0.08-0.05-0.12-0.07c-1.26-0.76-2.67-1.31-4.17-1.61l-21.22-4.15l-6.21-1.22v27.36
				c0,6.19,4.41,11.55,10.49,12.74l21.23,4.16l3.11,0.6l3.11-0.6v-26.15C194.41,317.93,194.15,316.5,193.68,315.16z M188.2,339.24
				l-20.04-3.93c-3.17-0.62-5.47-3.42-5.47-6.65v-19.81l20.04,3.92c3.17,0.62,5.47,3.42,5.47,6.65V339.24z"/>
		</g>
		<g>
			<linearGradient id="SVGID_2_" gradientUnits="userSpaceOnUse" x1="207.1673" y1="361.8178" x2="207.1673" y2="302.546">
				<stop  offset="0" style="stop-color:#F4A27D"/>
				<stop  offset="1" style="stop-color:#3D3D55"/>
			</linearGradient>
			<path class="st3" d="M219.92,302.52l-21.23,4.15c-1.51,0.29-2.9,0.84-4.16,1.6c-0.04,0.02-0.08,0.04-0.12,0.07
				c-0.02,0.01-0.04,0.02-0.05,0.04c-0.55,0.34-1.06,0.72-1.55,1.13c-0.54,0.46-1.05,0.96-1.5,1.5c-1.05,1.22-1.85,2.64-2.39,4.16
				c-0.47,1.34-0.72,2.77-0.72,4.25v26.15l3.11,0.6l3.11-0.6l21.22-4.16c6.08-1.19,10.5-6.55,10.5-12.74V301.3L219.92,302.52z
				 M219.92,328.66c0,3.23-2.31,6.02-5.47,6.65l-20.04,3.93v-19.82c0-3.23,2.3-6.02,5.47-6.65l20.04-3.92V328.66z"/>
		</g>
		<linearGradient id="SVGID_3_" gradientUnits="userSpaceOnUse" x1="191.1499" y1="361.818" x2="191.1499" y2="302.5459">
			<stop  offset="0" style="stop-color:#F4A27D"/>
			<stop  offset="1" style="stop-color:#3D3D55"/>
		</linearGradient>
		<circle class="st4" cx="191.15" cy="299.64" r="5.62"/>
	</g>
	<g>
		<path class="st5" d="M192.18,255.55c-38.03,0-68.97,30.94-68.97,68.97c0,13.45,3.87,26.02,10.56,36.64
			c0.11-1.49,0.55-2.86,1.26-4.06c-5.5-9.6-8.64-20.73-8.64-32.57c0-36.27,29.52-65.78,65.78-65.78c36.28,0,65.78,29.52,65.78,65.78
			c0,16.39-6.02,31.4-15.97,42.92c0.57,0.12,1.1,0.35,1.57,0.68c0.88-0.35,1.78-0.64,2.71-0.85c9.31-11.76,14.88-26.62,14.88-42.75
			C261.14,286.49,230.2,255.55,192.18,255.55z"/>
	</g>
	<g>
		<path class="st1" d="M192.18,263.79c-33.49,0-60.73,27.25-60.73,60.73c0,10.51,2.68,20.43,7.42,29.06
			c0.95-0.48,2.01-0.8,3.12-0.92c-4.68-8.32-7.35-17.92-7.35-28.14c0-31.74,25.82-57.55,57.55-57.55
			c31.75,0,57.56,25.82,57.56,57.55c0,17-7.4,32.29-19.14,42.82h4.62c10.94-10.98,17.71-26.13,17.71-42.82
			C252.92,291.04,225.67,263.79,192.18,263.79z"/>
	</g>
	<g>
		<path class="st6" d="M55.92,412.9c-1.51-0.03-2.01,0.78-1.94,2.38c-0.04,1.82,0.11,11.31-0.11,12.92
			c0.44-0.07,1.64-0.08,2.05-0.08v2.1h-7.84v-1.8c1.52,0.04,2-0.8,1.94-2.38c0.03-1.82-0.09-11.31,0.11-12.92
			c-0.46,0.04-1.62,0.04-2.05,0.08v-2.1h7.84V412.9z"/>
		<path class="st6" d="M59.36,430.22v-1.78c2.83,0.55,1.13-7.47,1.72-9.34c-0.47,0.04-1.47,0.04-1.91,0.08v-2.08
			c1.56-0.03,3.05-0.09,4.21-0.82h1.34c0.1,0.62,0.01,0.74,0.16,1.37c9.23-5.36,8.91,3.97,8.44,10.57c0.49-0.07,1.33-0.08,1.78-0.08
			v2.08h-7.16v-1.78c2.72,0.13,1.3-4.71,1.61-6.31c0.43-3.33-2.47-4.5-4.7-2.49c-0.03,2.41,0.09,6.16-0.11,8.58
			c0.46-0.07,1.35-0.08,1.78-0.08v2.08H59.36z"/>
		<path class="st6" d="M83.23,430.66c-5.98,0.4-3.9-8.16-4.21-11.83h-1.86v-2.27c1.9-0.09,3.39-2.06,3.74-3.82h2.02l-0.03,3.82h3.47
			v2.1l-3.47,0.08c0.14,2.62-1.35,13.69,4.1,7.73l1.31,1.23C87.15,429.53,85.23,430.67,83.23,430.66z"/>
		<path class="st6" d="M96.84,430.66c-7.14,0.37-9.07-10.01-3.51-13.51c4.24-2.79,10.4,0.19,9.74,5.72l-8.96,0.16
			c-0.54,5.05,4.76,6.99,7.87,3.14l1.23,1.15C101.71,429.57,99.32,430.67,96.84,430.66z M94.27,421.12h5.03
			C99.54,416.84,94.51,417.28,94.27,421.12z"/>
		<path class="st6" d="M106.31,428.44c2.83,0.55,1.13-7.47,1.72-9.34c-0.47,0.04-1.47,0.04-1.91,0.08v-2.08
			c1.3,0.05,3.26-0.03,4.21-0.82h1.34c0.09,0.48,0.11,1.8,0.11,2.35c1.46-2.87,7.32-3.81,6.17,0.61c-0.58,1.56-3.45,1.4-3.5-0.53
			c-4.05,0.93-2.2,6.57-2.76,9.51c0.46-0.07,1.35-0.08,1.78-0.08v2.08h-7.16V428.44z"/>
		<path class="st6" d="M120.68,430.22v-1.78c2.83,0.55,1.13-7.47,1.72-9.34c-0.47,0.04-1.47,0.04-1.91,0.08v-2.08
			c1.56-0.03,3.05-0.09,4.21-0.82h1.34c0.1,0.62,0.01,0.74,0.16,1.37c9.23-5.36,8.91,3.97,8.44,10.57c0.49-0.07,1.33-0.08,1.78-0.08
			v2.08h-7.16v-1.78c2.72,0.13,1.3-4.71,1.61-6.31c0.43-3.33-2.47-4.5-4.7-2.49c-0.03,2.41,0.09,6.16-0.11,8.58
			c0.46-0.07,1.35-0.08,1.78-0.08v2.08H120.68z"/>
		<path class="st6" d="M146.9,430.22c-0.08-0.51-0.07-0.75-0.11-1.26c-9.11,6.38-11.39-7.33-0.16-6.96c0.36-2.84-0.9-5.29-3.82-3.14
			c1.69,2.63-3.18,4.07-3.2,0.87c0.31-3.94,7.13-4.58,9.49-2.36c2.29,2.55,1.08,7.5,1.19,10.86c0.49-0.07,1.33-0.08,1.78-0.08v2.08
			H146.9z M146.6,423.94c-5.12-0.1-4.6,6.49,0,3.06C146.6,425.98,146.6,424.95,146.6,423.94z"/>
		<path class="st6" d="M160.17,430.66c-5.98,0.4-3.9-8.16-4.21-11.83h-1.86v-2.27c1.9-0.09,3.39-2.06,3.74-3.82h2.02l-0.03,3.82
			h3.47v2.1l-3.47,0.08c0.14,2.62-1.35,13.69,4.1,7.73l1.31,1.23C164.09,429.53,162.17,430.67,160.17,430.66z"/>
		<path class="st6" d="M167.3,428.44c2.83,0.55,1.13-7.47,1.72-9.34c-0.47,0.04-1.47,0.04-1.91,0.08v-2.08
			c1.56-0.03,3.05-0.09,4.21-0.82h1.48c-0.03,1.86,0.09,10.24-0.11,11.94c0.46-0.07,1.35-0.08,1.78-0.08v2.08h-7.16V428.44z
			 M170.72,414.13c-2.8,0.07-2.76-4.49-0.03-4.48C173.34,409.6,173.42,414.19,170.72,414.13z"/>
		<path class="st6" d="M184.18,430.66c-9.27,0.46-9.01-14.65-0.08-14.53C193.22,415.63,193.15,430.96,184.18,430.66z M184.29,428.72
			c3.91-0.12,3.5-10.59-0.25-10.68C179.93,418.37,180.3,428.51,184.29,428.72z"/>
		<path class="st6" d="M194.21,430.22v-1.78c2.83,0.55,1.13-7.47,1.72-9.34c-0.47,0.04-1.47,0.04-1.91,0.08v-2.08
			c1.56-0.03,3.05-0.09,4.21-0.82h1.34c0.1,0.62,0.01,0.74,0.16,1.37c9.23-5.36,8.91,3.97,8.44,10.57c0.49-0.07,1.33-0.08,1.78-0.08
			v2.08h-7.16v-1.78c2.72,0.13,1.3-4.71,1.61-6.31c0.43-3.33-2.47-4.5-4.7-2.49c-0.03,2.41,0.09,6.16-0.11,8.58
			c0.46-0.07,1.35-0.08,1.78-0.08v2.08H194.21z"/>
		<path class="st6" d="M220.43,430.22c-0.08-0.51-0.07-0.75-0.11-1.26c-9.11,6.38-11.39-7.33-0.16-6.96
			c0.36-2.84-0.9-5.29-3.82-3.14c1.69,2.63-3.18,4.07-3.2,0.87c0.31-3.94,7.13-4.58,9.49-2.36c2.29,2.55,1.08,7.5,1.19,10.86
			c0.49-0.07,1.33-0.08,1.78-0.08v2.08H220.43z M220.13,423.94c-5.12-0.1-4.6,6.49,0,3.06
			C220.13,425.98,220.13,424.95,220.13,423.94z"/>
		<path class="st6" d="M227.97,428.44c1.54,0.1,1.63-1.22,1.61-2.43c0.03-1.79-0.09-12.04,0.11-13.6c-0.47,0.04-1.47,0.04-1.91,0.08
			v-2.08c1.58-0.03,3.04-0.08,4.21-0.82h1.47c-0.04,1.62,0.1,17.48-0.11,18.63c0.49-0.07,1.33-0.08,1.78-0.08v2.08h-7.16V428.44z"/>
		<path class="st6" d="M257.9,417.22c-0.4-7.48-12.33-4.5-5.74,0.41c15.15,4.64,8.2,16.93-3.03,11.69l0.08,1.15h-2.1v-6.39h1.8
			c0.07,5.91,10.81,6.11,7.66,0.46c-2.35-1.9-5.96-2.3-8.13-4.48c-5.85-6.22,3.44-12.26,9.23-8.08l-0.11-1.12h2.13v6.36H257.9z"/>
		<path class="st6" d="M270.66,430.66c-7.65,0.34-9.04-11.13-2.5-13.93c3.1-1.75,9.94,0.27,7.65,4.55
			c-1.59,1.82-4.19-0.44-2.88-2.34c-7.48-5.33-6.5,16.22,2.7,7.18l1.26,1.23C275.37,429.56,273.16,430.67,270.66,430.66z"/>
		<path class="st6" d="M287.75,428.44c2.72,0.13,1.3-4.71,1.61-6.31c0.41-3.31-2.49-4.5-4.7-2.49c-0.02,1.79,0.08,6.86-0.11,8.58
			c0.49-0.07,1.33-0.08,1.78-0.08v2.08h-7.16v-1.78c1.55,0.1,1.63-1.22,1.61-2.43c0.03-1.79-0.09-12.04,0.11-13.6
			c-0.47,0.04-1.47,0.04-1.91,0.08v-2.08c1.58-0.03,3.04-0.08,4.21-0.82h1.47v8.06c9.21-5.37,8.99,3.93,8.49,10.57
			c0.48-0.07,1.32-0.08,1.78-0.08v2.08h-7.18V428.44z"/>
		<path class="st6" d="M304.52,430.66c-9.27,0.46-9.01-14.65-0.08-14.53C313.56,415.63,313.49,430.96,304.52,430.66z M304.63,428.72
			c3.91-0.12,3.5-10.59-0.25-10.68C300.27,418.37,300.64,428.51,304.63,428.72z"/>
		<path class="st6" d="M321.24,430.66c-9.27,0.46-9.01-14.65-0.08-14.53C330.28,415.63,330.2,430.96,321.24,430.66z M321.35,428.72
			c3.91-0.12,3.5-10.59-0.25-10.68C316.98,418.37,317.36,428.51,321.35,428.72z"/>
		<path class="st6" d="M330.72,428.44c1.54,0.1,1.63-1.22,1.61-2.43c0.03-1.79-0.09-12.04,0.11-13.6c-0.47,0.04-1.47,0.04-1.91,0.08
			v-2.08c1.58-0.03,3.04-0.08,4.21-0.82h1.47c-0.04,1.62,0.1,17.48-0.11,18.63c0.49-0.07,1.33-0.08,1.78-0.08v2.08h-7.16V428.44z"/>
	</g>
</g>
<g>
</g>
<g>
</g>
<g>
</g>
<g>
</g>
<g>
</g>
<g>
</g>
</svg>
